<svg xmlns="http://www.w3.org/2000/svg" xmlns:xlink="http://www.w3.org/1999/xlink" viewBox="0 0 356.3 356.3"><use xlink:href="#B" fill="#5c6670"/><use xlink:href="#C" fill="#333e48"/><use xlink:href="#B" y="82" fill="#5c6670"/><use xlink:href="#C" y="82" fill="#333e48"/><use xlink:href="#D" fill="#5c6670"/><use xlink:href="#E" fill="#333e48"/><use xlink:href="#D" y="82" fill="#5c6670"/><use xlink:href="#E" y="82" fill="#333e48"/><path d="M52.4 64.2a5.59 5.59 0 1 0 0 11.2C59.3 75.3 65 81 65 88a5.59 5.59 0 1 0 11.2 0c-.1-13.1-10.7-23.8-23.8-23.8z" fill="#5c6670"/><path d="M70.6 84.1c-5.4 0-9.7 4.4-9.7 9.7 0 30.1 24.5 54.7 54.7 54.7 5.4 0 9.7-4.4 9.7-9.7 0-5.4-4.4-9.7-9.7-9.7-19.4 0-35.2-15.8-35.2-35.2-.1-5.4-4.5-9.8-9.8-9.8z" fill="#333e48"/><path d="M303.9 64.2a5.59 5.59 0 1 1 0 11.2c-7 0-12.6 5.7-12.6 12.6a5.59 5.59 0 1 1-11.2 0c.1-13.1 10.7-23.8 23.8-23.8z" fill="#5c6670"/><g fill="#333e48"><path d="M285.7 84.1c5.4 0 9.7 4.4 9.7 9.7 0 30.1-24.5 54.7-54.7 54.7-5.4 0-9.7-4.4-9.7-9.7 0-5.4 4.4-9.7 9.7-9.7 19.4 0 35.2-15.8 35.2-35.2.1-5.4 4.5-9.8 9.8-9.8z"/><path d="M188.8 68.3V58h28.6c13.5 0 24.4-10.9 24.4-24.4V9.1c0-5-4.1-9.1-9.1-9.1s-9.1 4.1-9.1 9.1v11.6A11.61 11.61 0 0 1 212 32.3h-67.8a11.61 11.61 0 0 1-11.6-11.6V9.1c0-5-4.1-9.1-9.1-9.1s-9.1 4.1-9.1 9.1v24.4c0 13.5 10.9 24.4 24.4 24.4h28.6v10.4C128.3 73.5 98 107.1 98 147.8v14a17.31 17.31 0 0 0 17.3 17.3H241a17.31 17.31 0 0 0 17.3-17.3v-14c0-40.7-30.3-74.3-69.5-79.5z"/></g><path d="M248.8 157.5H107.5c-10.8 0-19.5 8.7-19.5 19.5v89.2c0 49.8 40.4 90.1 90.1 90.1s90.1-40.4 90.1-90.1V177c.1-10.8-8.6-19.5-19.4-19.5z" fill="#0075c9"/><path d="M179.9 344.2V170.9c3.7-5.9 9.1-10.7 15.5-13.5H161c6.4 2.8 11.8 7.6 15.5 13.5v173.2c-2.2 4.4-5.3 8.3-9 11.5 3.5.4 7.1.7 10.7.7s7.2-.2 10.7-.7c-3.8-3.2-6.8-7.1-9-11.4z" fill="#65513c"/><defs ><path id="B" d="M32.6 260.5a5.59 5.59 0 1 1 0-11.2c7 0 12.6-5.7 12.6-12.6a5.59 5.59 0 1 1 11.2 0c0 13.1-10.7 23.8-23.8 23.8z"/><path id="C" d="M50.8 240.6c-5.4 0-9.7-4.4-9.7-9.7 0-30.1 24.5-54.7 54.7-54.7 5.4 0 9.7 4.4 9.7 9.7 0 5.4-4.4 9.7-9.7 9.7-19.4 0-35.2 15.8-35.2 35.2-.1 5.4-4.4 9.8-9.8 9.8z"/><path id="D" d="M323.7 260.5a5.59 5.59 0 1 0 0-11.2c-7 0-12.6-5.7-12.6-12.6a5.59 5.59 0 1 0-11.2 0c0 13.1 10.7 23.8 23.8 23.8z"/><path id="E" d="M305.5 240.6c5.4 0 9.7-4.4 9.7-9.7 0-30.1-24.5-54.7-54.7-54.7-5.4 0-9.7 4.4-9.7 9.7 0 5.4 4.4 9.7 9.7 9.7 19.4 0 35.2 15.8 35.2 35.2.1 5.4 4.4 9.8 9.8 9.8z"/></defs></svg>