<svg xmlns="http://www.w3.org/2000/svg" viewBox="0 0 410.2 410.2"><path d="M356.3 144.8c27.1 0 49 22 49 49s-22 49-49 49h-67.6c-27.1 0-49-22-49-49s22-49 49-49h67.6z" fill="#09f"/><path d="M410.2 162.1c-.9-26.3-22.5-47.3-49-47.3h-67.6c-10.6 0-21 3.4-29.4 9.8h-107c-38.2 0-70 27.4-76.9 63.6-1.3 5.1-5.4 9.2-10.6 10.4H39.5C17.7 198.5 0 216.2 0 238s17.7 39.5 39.5 39.5h33.3a39.34 39.34 0 0 0 32-16.4c13.9 12.5 32.2 20.1 52.4 20.1h107.9c39.9 0 72.7-29.8 77.6-68.3h5.4c5.5 10.6 16.5 17.9 29.2 17.9 18.2 0 32.9-14.7 32.9-32.9v-35.8z" fill="#0075c9"/><path d="M293.8 261.9c0 18.6-15 33.6-33.6 33.6s-33.6-15-33.6-33.6v-46.3c0-18.6 15-33.6 33.6-33.6s33.6 15 33.6 33.6v46.3z" fill="#09f"/><circle cx="340.7" cy="142.6" r="5.8" fill="#333e48"/><g fill="#09f"><circle cx="154.8" cy="146.6" r="2.9"/><circle cx="185.3" cy="136.7" r="2.9"/><circle cx="128.4" cy="142.6" r="2.9"/><circle cx="168" cy="160.8" r="2.9"/><circle cx="199.6" cy="154.2" r="2.9"/><circle cx="216.2" cy="142.6" r="2.9"/><circle cx="232.1" cy="133.8" r="2.9"/></g></svg>