<svg xmlns="http://www.w3.org/2000/svg" xmlns:xlink="http://www.w3.org/1999/xlink" viewBox="0 0 376.8 376.8"><path d="M205.4 364.1h-18.3v-64.8h-13.3v71.2c0 3.5 2.8 6.3 6.3 6.3h25.3c3.5 0 6.3-2.8 6.3-6.3s-2.8-6.4-6.3-6.4z" fill="#b36f0f"/><use xlink:href="#B" fill="#0075c9"/><path d="M174.2 364.1H156v-64.8h-13.3v71.2c0 3.5 2.8 6.3 6.3 6.3h25.3c3.5 0 6.3-2.8 6.3-6.3-.1-3.5-2.9-6.4-6.4-6.4z" fill="#ed9900"/><g fill="#09f"><use xlink:href="#B" x="-31.2"/><path d="M274.4 177.2l-58.9-58.9c2.2-1.7 4.4-3.6 6.4-5.6 25.8-25.8 25.8-67.6 0-93.4s-67.6-25.8-93.4 0-25.8 67.6 0 93.4l44.2 44.2h-155v30.7c0 61.7 50 111.6 111.6 111.6h95.3c39.3 0 71.2-31.9 71.2-71.2.1-19.8-8.1-37.9-21.4-50.8z"/></g><circle cx="185.7" cy="43.2" r="8.5" fill="#333e48"/><path d="M181.4 270.5c24.9 0 45.1-20.2 45.1-45.1s-20.2-45.1-45.1-45.1H50.2c0 49.9 40.4 90.3 90.3 90.3h40.9z" fill="#0075c9"/><path d="M68.1 180.2H50.2c0 49.9 40.4 90.3 90.3 90.3h17.9c-49.9 0-90.3-40.4-90.3-90.3z" fill="#333e48"/><path d="M163.6 82l75.8 75.8c12.7 12.7 30.2 20.5 49.5 20.5 38.7 0 70-31.4 70-70V82H163.6z" fill="#ed9900"/><path d="M163.6,82c0-12,9.7-21.8,21.8-21.8h151.8c12,0,21.8,9.7,21.8,21.8H163.6z" fill="#ffb648"/><defs ><path id="B" d="M168.6 291.3c0-6.6 5.3-11.9 11.9-11.9s11.9 5.3 11.9 11.9v10.3c0 6.6-5.3 11.9-11.9 11.9s-11.9-5.3-11.9-11.9v-10.3z"/></defs></svg>