<svg xmlns="http://www.w3.org/2000/svg" viewBox="0 0 311.096 311.096"><path d="M233.058 210.95c27.653 0 50.072 22.42 50.072 50.072a49.84 49.84 0 0 1-6.081 23.933h5.28c7.218 0 13.07 5.852 13.07 13.07v7.17a5.9 5.9 0 0 1-5.9 5.9h-56.44c-27.655 0-50.074-22.42-50.074-50.074s22.42-50.072 50.074-50.072zm-155.02 0c-27.654 0-50.073 22.42-50.073 50.072a49.84 49.84 0 0 0 6.082 23.933h-5.28c-7.218 0-13.07 5.852-13.07 13.07v7.17a5.9 5.9 0 0 0 5.9 5.9h56.44c27.655 0 50.074-22.42 50.074-50.074s-22.418-50.072-50.074-50.072z" fill="#65513c"/><path d="M103.912 311.096h103.273c22.948 0 41.727-18.778 41.727-41.728v-86.505c0-51.564-41.8-93.364-93.365-93.364s-93.364 41.8-93.364 93.364v86.505c.001 22.95 18.78 41.728 41.73 41.728z" fill="#9c7f4d"/><path d="M62.184 207.95v55.777c12.467-3.153 21.693-14.442 21.693-27.9s-9.226-24.735-21.693-27.888z" fill="#fff"/><path d="M210.947 8.397h-110.8c-24.623 0-44.77 20.146-44.77 44.77v46.872c0 55.322 44.848 100.17 100.17 100.17s100.17-44.847 100.17-100.17V53.166c.001-24.623-20.145-44.77-44.77-44.77z" fill="#9c7f4d"/><path d="M193.767 95.523H117.33c-11.774 0-21.318 9.544-21.318 21.318v42.638c0 11.774 9.544 21.32 21.318 21.32s21.318-9.545 21.318-21.32V138.16h33.8v21.318c0 11.774 9.544 21.32 21.318 21.32s21.318-9.545 21.318-21.32V116.84a21.32 21.32 0 0 0-21.317-21.318z" fill="#fff"/><path d="M131.8 131.792c-3.284 0-4.63-2.327-2.986-5.172l5.782-10.016c1.643-2.845 4.33-2.845 5.973 0l5.782 10.016c1.642 2.845.298 5.172-2.986 5.172H131.8zm47.496 0c3.284 0 4.63-2.327 2.985-5.172l-5.78-10.016c-1.642-2.845-4.33-2.845-5.973 0l-5.782 10.016c-1.643 2.845-.298 5.172 2.986 5.172h11.565z" fill="#fadf8d"/><path d="M172.667 122.066h-34.24c-7.607 0-13.834 6.225-13.834 13.834v7.55c0 17.097 13.858 30.953 30.955 30.953s30.954-13.856 30.954-30.953v-7.55c0-7.6-6.226-13.834-13.835-13.834z" fill="#826940"/><path d="M165.54 106.347c-5.062 5.25-13.496 5.4-18.74.335l-5.853-5.648c-5.247-5.066-3.57-9.2 3.722-9.2h21.62c7.293 0 9.117 4.296 4.054 9.543l-4.803 4.98z" fill="#333e48"/><path d="M252.347 51.524c-13.42.246-24.6-10.54-24.825-23.957l-.267-14.968c-.236-13.42 7.34-16.635 16.832-7.143l28.14 28.14c9.492 9.492 6.274 17.457-7.146 17.696l-12.734.233zm-193.597 0c13.42.246 24.6-10.54 24.825-23.957L83.84 12.6C84.078-.822 76.5-4.036 67 5.456l-28.14 28.14c-9.492 9.492-6.274 17.457 7.145 17.696l12.734.233z" fill="#65513c"/><circle cx="207.687" cy="60.347" r="24.161" fill="#fff"/><g fill="#333e48"><circle cx="207.687" cy="60.347" r="8.819"/><circle cx="103.409" cy="60.347" r="8.819"/></g><path d="M130.128 216.124c0-12.094-9.805-21.898-21.898-21.898s-21.898 9.805-21.898 21.898v68.83H68.18a13.07 13.07 0 0 0-13.069 13.07v7.17a5.9 5.9 0 0 0 5.899 5.9h56.05c7.218 0 13.07-5.853 13.07-13.07v-81.9zm50.84 0c0-12.094 9.805-21.898 21.898-21.898s21.898 9.805 21.898 21.898v68.83h18.152a13.07 13.07 0 0 1 13.069 13.07v7.17a5.9 5.9 0 0 1-5.899 5.9h-56.05c-7.218 0-13.07-5.853-13.07-13.07l.001-81.9z" fill="#826940"/></svg>