<svg xmlns="http://www.w3.org/2000/svg" viewBox="0 0 376.438 376.438"><path d="M185.474 93.505v135.128c0 25.607 20.76 46.367 46.368 46.367v37.1h-74.766c-37.014 0-67.02-30.007-67.02-67.02v-23.175c0-18.6-11.606-34.5-27.975-40.854v.003C25.928 168.396 0 133.978 0 93.505 0 42.288 41.52.768 92.737.768s92.737 41.52 92.737 92.737z" fill="#65513c"/><path d="M92.737.768a92.77 92.77 0 0 1 23.97 3.135c32.17 15.985 53.88 49.17 53.88 86.96V227.96c0 24.285 19.758 44.042 44.043 44.042h.796c5.104 1.933 10.634 3 16.416 3v3h-17.2c-27.594 0-50.043-22.45-50.043-50.042V90.862c0-44.998-32.796-83.057-76.845-89.96a93.99 93.99 0 0 1 4.995-.135z" fill="#e1cb81"/><path d="M200.74 208.506V66.555c0-11.966 9.697-21.657 21.66-21.66a21.66 21.66 0 0 1 21.657 21.658v8c10.243-5.017 21.754-7.842 33.93-7.842h14.174c42.662 0 77.246 34.584 77.246 77.246 0 28.158-15.072 52.8-37.584 66.3 17.323 17.13 28.06 40.906 28.06 67.193 0 52.2-42.3 94.5-94.5 94.5s-94.5-42.3-94.5-94.5c-.001-27.185 11.482-51.684 29.858-68.924z" fill="#9c7f4d"/><g fill="#333e48"><circle cx="315.436" cy="124.156" r="8.291"/><path d="M369.817 132.986a2.98 2.98 0 0 0-2.98-2.98l-5.2.064c-5.468.022-6.7 3.137-2.762 6.917l4.405 4.22a9.88 9.88 0 0 0 6.525 2.74l.002-10.96z"/></g><path d="M235.452 246.528c35.66 0 64.57 28.9 64.57 64.57v28.42h23.95c9.985 0 18.08 8.094 18.08 18.076s-8.093 18.078-18.08 18.078H267.87c-.006 0-.013-.001-.02-.001h-32.398c-35.662 0-64.57-28.9-64.57-64.572s28.9-64.57 64.57-64.57zm135.7 22.172a18.08 18.08 0 0 1-25.565 25.565l-32.618-32.618a18.08 18.08 0 0 1 .001-25.565c7.06-7.06 18.503-7.06 25.563 0l32.62 32.618z" fill="#826940"/></svg>