<svg xmlns="http://www.w3.org/2000/svg" viewBox="0 0 398.5 398.5"><path d="M369.3 275.7V251c0-8 6.5-14.6 14.6-14.6 8 0 14.6 6.5 14.6 14.6v24.7c0 8.1-6.5 14.6-14.6 14.6s-14.6-6.5-14.6-14.6z" fill="#bf9b5f"/><path d="M369.3 251c0-27.7-22.5-50.2-50.2-50.2S269 223.3 269 251v33.2c0 8-6.5 14.6-14.6 14.6-8 0-14.6-6.5-14.6-14.6V251c0-43.7 35.6-79.3 79.3-79.3s79.3 35.6 79.3 79.3h-29.1zm-183.8 79.5h-50.8c-33.5 0-60.7-27.2-60.7-60.7v-33a25.91 25.91 0 0 0-25.9-25.9 25.91 25.91 0 0 0-25.9 25.9c0 6.1-5 11.1-11.1 11.1S0 242.9 0 236.8c0-26.5 21.6-48.1 48.1-48.1s48.1 21.6 48.1 48.1v33c0 21.3 17.3 38.5 38.5 38.5h50.8c6.1 0 11.1 5 11.1 11.1-.1 6.2-5 11.1-11.1 11.1z" fill="#4d3d2d"/><path d="M343.1 332.8c5.7 0 10.3 4.6 10.3 10.3s-4.6 10.3-10.3 10.3H311c-5.7 0-10.3-4.6-10.3-10.3s4.6-10.3 10.3-10.3h32.1z" fill="#9e7e51"/><path d="M266.6 248.3c-29.1 0-52.6 23.6-52.6 52.6s23.6 52.6 52.6 52.6h52.6v-52.6c0-29.1-23.6-52.6-52.6-52.6z" fill="#4d3d2d"/><g fill="#65513c"><path d="M137.6 234.3c0-41.4 33.6-75 75-75s75 33.6 75 75v44.1c0 41.4-33.6 75-75 75s-75-33.6-75-75v-44.1z"/><path d="M265.2 45c44.4 0 80.3 36 80.3 80.3s-36 80.3-80.3 80.3h-44.8c-44.4 0-80.3-36-80.3-80.3s36-80.3 80.3-80.3h44.8z"/></g><path d="M341.1 151.6c2.9-8.5 4.4-17.4 4.4-26.3 0-11-2.2-21.5-6.2-31-6.3-4.7-13.5-8.3-21.4-10.3-9.9 3.2-18.1 10-23 19-6.3-11.4-18-19.5-31.6-20.8-31.9 2.4-57 29.1-57 61.6 0 33.2 26.2 60.2 59 61.7.8.1 1.6.1 2.4.1h48.8c18.1 0 32.7-14.6 32.7-32.7-.2-8.1-3.1-15.5-8.1-21.3z" fill="#bf9b5f"/><g fill="#333e48"><circle transform="matrix(.1602 -.9871 .9871 .1602 88.3615 353.4566)" cx="251.9" cy="124.8" r="6.8"/><circle cx="331.8" cy="124.8" r="6.8"/><path d="M290.3 152.9c-.6 0-1.3-.2-1.8-.7l-4.1-4.1c-1-1-.9-2.6.1-3.5s2.5-.9 3.5 0l4.1 4.1c1 1 1 2.6 0 3.5-.5.4-1.1.7-1.8.7zm19.6 0c-.6 0-1.3-.2-1.8-.7-1-1-1-2.6 0-3.5l4.1-4.1c1-1 2.6-.9 3.5.1s.9 2.5 0 3.5l-4.1 4.1c-.4.3-1.1.6-1.7.6z"/></g><path d="M159.1,95.1c-16.7,0-30.2,13.5-30.2,30.2s13.5,30.2,30.2,30.2V95.1z" fill="#65513c"/><path d="M159.1 106.8c-10.2 0-18.5 8.3-18.5 18.5s8.3 18.5 18.5 18.5v-37zm94.4 226c5.7 0 10.3 4.6 10.3 10.3s-4.6 10.3-10.3 10.3h-32.1c-5.7 0-10.3-4.6-10.3-10.3s4.6-10.3 10.3-10.3h32.1z" fill="#bf9b5f"/><path d="M177 248.3c-29.1 0-52.6 23.6-52.6 52.6s23.6 52.6 52.6 52.6h52.6v-52.6c0-29.1-23.5-52.6-52.6-52.6z" fill="#65513c"/><path d="M162.4 99.4h-24.7c-8 0-14.6-6.5-14.6-14.6 0-8 6.5-14.6 14.6-14.6h24.7c8.1 0 14.6 6.5 14.6 14.6s-6.6 14.6-14.6 14.6z" fill="#bf9b5f"/><path d="M137.6 99.4c-27.7 0-50.2 22.5-50.2 50.2s22.5 50.2 50.2 50.2h33.2c8 0 14.6 6.5 14.6 14.6 0 8-6.5 14.6-14.6 14.6h-33.2c-43.7 0-79.3-35.6-79.3-79.3s35.6-79.3 79.3-79.3v29z" fill="#65513c"/></svg>