<svg xmlns="http://www.w3.org/2000/svg" viewBox="0 0 448.4 448.4"><path d="M268.5 303.3l16.7 16.7c18.8 18.8 49.2 18.8 68 0l-50.7-50.7c-9.4-9.4-24.6-9.4-34 0-9.3 9.4-9.3 24.6 0 34z" fill="#545d66"/><path d="M63.9 178.3H0c0 26.6 21.5 48.1 48.1 48.1h26.6c19.4 50.9 68.6 87.1 126.3 87.1h113.5c67.9 0 124.1-50 133.7-115.2.1-.7.1-1.4.1-2.1 0-9.9-8-17.9-17.9-17.9h-124c-10.6-32.2-40.9-55.4-76.6-55.4v55.4H112v-15.8c0-26.6-21.5-48.1-48.1-48.1v63.9z" fill="#5c6670"/><circle cx="371.5" cy="205.1" r="8.4" fill="#333e48"/><path d="M87.7,251.9c24.1,37,65.9,61.5,113.3,61.5h113.5c47.5,0,89.2-24.5,113.3-61.5H87.7z" fill="#7d868c"/><path d="M427.9 198.4c-.5 0-1-.2-1.4-.6l-6.7-6.7c-.7-.8-.7-2 .1-2.7s2-.7 2.7.1l6.6 6.6c.7.7.7 2 0 2.7-.3.4-.8.6-1.3.6zm-118.7 91.3c-.4 0-.7-.1-1-.4-20.6-20.6-20.6-54.1 0-74.7.6-.6 1.5-.6 2 0 .6.6.6 1.5 0 2-19.5 19.5-19.5 51.2 0 70.6.6.6.6 1.5 0 2-.3.3-.6.5-1 .5zm9.4-9.4c-.4 0-.7-.2-1-.4-7.5-7.5-11.6-17.4-11.6-28 0-10.5 4.1-20.6 11.6-28 .6-.5 1.5-.5 2 0 .5.6.5 1.5 0 2l-.3.3c-14.1 14.3-14 37.4.3 51.5.3.3.4.6.4 1 0 1-.7 1.6-1.4 1.6zm8.8-8.9c-.4 0-.7-.1-1-.4-5.1-5.1-7.9-11.9-7.9-19.1s2.8-14 7.9-19.1c.6-.5 1.5-.5 2 0s.5 1.5 0 2c-4.5 4.5-7.1 10.7-7.1 17.1s2.5 12.6 7.1 17.1c.3.3.4.6.4 1 .1.8-.6 1.4-1.4 1.4z" fill="#333e48"/><path d="M275.9 303.3L259.2 320c-18.8 18.8-49.2 18.8-68 0l50.7-50.7c9.4-9.4 24.6-9.4 34 0s9.4 24.6 0 34z" fill="#5c6670"/></svg>