<svg xmlns="http://www.w3.org/2000/svg" viewBox="0 0 392.221 392.221"><style><![CDATA[.D{fill:#333e48}.E{fill:#5c6670}.F{fill:#545d66}]]></style><path d="M94.748 269.977v61.92h39.277v-29.914c19.173-12.734 31.817-34.515 31.817-59.257l-71.094 27.25z" class="F"/><path d="M142.77 331.897H94.75v12.07a12.07 12.07 0 0 0 12.07 12.07h41.985c3.332 0 6.035-2.702 6.035-6.035v-6.036a12.07 12.07 0 0 0-12.069-12.069z" class="D"/><path d="M43.68 36.185C19.557 36.185 0 55.742 0 79.866v119.18c0 24.124 19.557 43.68 43.68 43.68s43.68-19.557 43.68-43.68V79.866c-.001-24.124-19.557-43.68-43.68-43.68z" class="F"/><path d="M0 199.046c0 3.538.432 6.975 1.226 10.27h84.9c.794-3.295 1.226-6.732 1.226-10.27v-9.255H0v9.255zm0-29.795h87.36v-19.525H0v19.525zm0-40.065h87.36V109.66H0v19.525zm86.136-59.6h-84.9A43.4 43.4 0 0 0 0 79.866v9.255h87.36v-9.255c0-3.54-.43-6.975-1.225-10.27z" class="D"/><path d="M237.643 269.977h39.277v61.92h-39.277z" class="F"/><path d="M285.664 331.897h-48.02v12.07c0 6.667 5.404 12.07 12.07 12.07H291.7c3.333 0 6.035-2.702 6.035-6.035v-6.036c0-6.665-5.404-12.07-12.07-12.07z" class="D"/><g class="E"><path d="M298.657 288.7c10.34 0 18.723-8.383 18.723-18.723 0-.733-.043-1.457-.125-2.168-10.1-68.363-69.018-120.828-140.2-120.828s-130.1 52.465-140.2 120.83a18.91 18.91 0 0 0-.125 2.168c0 10.34 8.383 18.723 18.723 18.723h243.183z"/><path d="M214.806 187.2c-10.026 0-14.128-7.104-9.115-15.787l30.765-53.285c5.012-8.683 13.217-8.683 18.23 0l30.765 53.285c5.013 8.683.9 15.787-9.115 15.787h-61.53z"/></g><path d="M230.924 173.36c-6.915 0-9.744-4.9-6.287-10.888l14.646-25.37c3.458-5.988 9.114-5.988 12.57 0l14.648 25.37c3.457 5.988.63 10.888-6.287 10.888h-29.3z" fill="#ff9c9f"/><path d="M372.636 187.2c10.026 0 14.128-7.104 9.116-15.787l-30.765-53.285c-5.013-8.683-13.218-8.683-18.23 0l-30.766 53.285c-5.013 8.683-.9 15.787 9.115 15.787h61.53z" class="E"/><path d="M356.52 173.36c6.914 0 9.743-4.9 6.286-10.888l-14.646-25.37c-3.458-5.988-9.114-5.988-12.57 0l-14.647 25.37c-3.458 5.988-.63 10.888 6.286 10.888h29.292z" fill="#ff9c9f"/><path d="M347.262 154.645H240.18a44.85 44.85 0 0 0-31.79 13.17c-17.557 17.558-17.557 46.023 0 63.58l53.54 53.505c8.778 8.78 20.284 13.168 31.8 13.168s23-4.4 31.8-13.168l53.532-53.506c8.142-8.137 13.178-19.38 13.178-31.8 0-24.83-20.128-44.96-44.96-44.96z" class="E"/><path d="M303.264 247.886h-19.086c-6.3 0-11.4 5.1-11.4 11.4s5.1 11.4 11.4 11.4h19.086c6.3 0 11.4-5.1 11.4-11.4s-5.1-11.4-11.4-11.4z" fill="#7d868c"/><path d="M252.713 187.252c-22.58 0-42.5 11.303-54.472 28.55a44.78 44.78 0 0 0 10.147 15.591l13.3 13.302c7.273-9.1 18.46-14.937 31.016-14.937 11.738 0 21.253-9.515 21.253-21.253s-9.515-21.253-21.253-21.253z" class="D"/><circle cx="252.713" cy="208.505" r="8.778" fill="#fff"/><path d="M334.73 187.252c22.58 0 42.5 11.303 54.472 28.55a44.78 44.78 0 0 1-10.147 15.591l-13.3 13.302c-7.273-9.1-18.46-14.937-31.016-14.937-11.737 0-21.253-9.515-21.253-21.253s9.515-21.253 21.253-21.253z" class="D"/><circle cx="334.729" cy="208.505" r="8.778" fill="#fff"/><path d="M300.164 243.343H287.28a5.39 5.39 0 0 0-3.826 1.585 5.41 5.41 0 0 0 0 7.65l6.442 6.44c1.057 1.056 2.44 1.585 3.825 1.585s2.77-.528 3.825-1.585l6.442-6.44a5.39 5.39 0 0 0 1.585-3.826 5.41 5.41 0 0 0-5.408-5.41z" class="D"/><path d="M36.75 269.977v61.92h39.277v-29.914c19.173-12.734 31.817-34.515 31.817-59.257l-71.094 27.25z" class="E"/><path d="M84.77 331.897H36.75v12.07a12.07 12.07 0 0 0 12.07 12.07h41.985c3.332 0 6.035-2.702 6.035-6.035v-6.036a12.07 12.07 0 0 0-12.07-12.069z" class="D"/><path d="M179.646 269.977h39.277v61.92h-39.277z" class="E"/><path d="M227.667 331.897h-48.02v12.07c0 6.667 5.404 12.07 12.07 12.07H233.7c3.333 0 6.035-2.702 6.035-6.035v-6.036a12.07 12.07 0 0 0-12.069-12.069z" class="D"/></svg>