<svg xmlns="http://www.w3.org/2000/svg" viewBox="0 0 391.77 391.77"><path d="M101.252 261.52H61.25C27.477 261.52 0 234.044 0 200.27s27.477-61.25 61.25-61.25a7.5 7.5 0 1 1 0 15c-25.502 0-46.25 20.748-46.25 46.25s20.748 46.25 46.25 46.25h40.002a7.5 7.5 0 1 1 0 15.001z" fill="#ff9c9f"/><path d="M335.3 140.974c16.982 0 30.75 13.768 30.75 30.75s-13.768 30.75-30.75 30.75h-18.754a12 12 0 0 1-11.996-11.996v-18.754c0-16.983 13.767-30.75 30.75-30.75z" fill="#7d868c"/><path d="M337.742 195.895a20.64 20.64 0 0 0 20.611-20.612 20.64 20.64 0 0 0-20.611-20.612c-11.365 0-20.613 9.247-20.613 20.612v18.754a1.86 1.86 0 0 0 1.859 1.858h18.754z" fill="#ff9c9f"/><path d="M291.793 171.357l-3.8.085c-23.934-25.36-57.857-41.192-95.48-41.192-72.498 0-131.27 58.772-131.27 131.27H381.96c0-49.796-40.367-90.164-90.164-90.164z" fill="#5c6670"/><path d="M264.02 140.974c-16.982 0-30.75 13.768-30.75 30.75s13.767 30.75 30.75 30.75h18.754a12 12 0 0 0 11.996-11.996v-18.754c0-16.983-13.768-30.75-30.75-30.75z" fill="#7d868c"/><path d="M267.578 195.895c-11.365 0-20.613-9.247-20.613-20.612s9.248-20.612 20.613-20.612a20.64 20.64 0 0 1 20.611 20.612v18.754a1.86 1.86 0 0 1-1.857 1.858h-18.754z" fill="#ff9c9f"/><g fill="#333e48"><circle cx="381.958" cy="251.709" r="9.812"/><circle cx="311.436" cy="205.307" r="4.666"/></g><path d="M154.768 261.52c0-17.12-13.877-31-30.998-31s-31 13.88-31 31h61.998zm130 0c0-17.12-13.877-31-30.998-31s-31 13.88-31 31h61.998z" fill="#7d868c"/></svg>