<svg xmlns="http://www.w3.org/2000/svg" viewBox="0 0 388.982 388.982"><path d="M352.75 79.196l-70.568-16.078a58.88 58.88 0 0 0-10.198-2.129V47.095a12.67 12.67 0 0 0-12.667-12.667 12.67 12.67 0 0 0-12.667 12.667v6.637c-13.736-12.604-32.046-20.304-52.158-20.304s-38.422 7.7-52.158 20.305v-6.638a12.67 12.67 0 0 0-12.667-12.667A12.67 12.67 0 0 0 117 47.095v13.897c-3.442.4-6.856 1.115-10.197 2.13l-.001-.005-70.57 16.078C15.637 82.877 0 100.865 0 122.52c0 17.32 10.005 32.295 24.547 39.48l140.357 79.344c6.14 3.55 12.782 5.907 19.587 7.072v53.404c0 18.602-15.133 33.734-33.733 33.734a33.51 33.51 0 0 1-23.854-9.88c-3.904-3.905-10.236-3.905-14.142-.002s-3.906 10.236-.002 14.143c10.147 10.15 23.643 15.74 37.998 15.74 29.63 0 53.733-24.105 53.733-53.734v-53.404c6.806-1.165 13.446-3.52 19.587-7.073l.003.007L364.44 162c14.54-7.188 24.543-22.163 24.543-39.48 0-21.654-15.636-39.642-36.232-43.323z" fill="#7c98ab"/><path d="M352.75 79.196l-70.568-16.078a58.88 58.88 0 0 0-10.198-2.129V47.095a12.67 12.67 0 0 0-12.667-12.667 12.67 12.67 0 0 0-12.667 12.667v6.637c-13.736-12.604-32.046-20.304-52.158-20.304s-38.422 7.7-52.158 20.305v-6.638a12.67 12.67 0 0 0-12.667-12.667A12.67 12.67 0 0 0 117 47.095v13.897c-3.442.4-6.856 1.115-10.197 2.13l-.001-.005-70.57 16.078C18.167 82.425 3.92 96.663.7 114.727c2.492 13.94 11.548 25.604 23.857 31.686l140.357 79.344c9.125 5.277 19.354 7.927 29.587 7.927s20.462-2.65 29.587-7.928l.003.007 140.358-79.35c12.307-6.084 21.36-17.746 23.853-31.684-3.228-18.065-17.476-32.303-35.542-35.532z" fill="#5f7585"/><g fill="#333e48"><circle cx="149.166" cy="80.672" r="5.5"/><circle cx="239.816" cy="80.672" r="5.5"/></g><g fill="#7c98ab"><circle cx="130.499" cy="157.189" r="8.833"/><circle cx="245.316" cy="180.395" r="8.833"/><circle cx="249.65" cy="198.926" r="4.333"/><circle cx="264.983" cy="170.875" r="4.333"/><circle cx="340.626" cy="130.094" r="4.333"/><circle cx="114.165" cy="180.394" r="4.333"/><circle cx="48.357" cy="110.602" r="4.333"/></g></svg>