<svg xmlns="http://www.w3.org/2000/svg" xmlns:xlink="http://www.w3.org/1999/xlink" viewBox="0 0 428.676 428.676"><use xlink:href="#A" fill="#4a5159"/><use xlink:href="#B" fill="#a4a9ad"/><use xlink:href="#C" opacity=".3" fill="#7d868c"/><use xlink:href="#A" x="139.023" fill="#4a5159"/><use xlink:href="#B" x="139.024" fill="#a4a9ad"/><path d="M276.83 313.047c-1.632 0-2.956 1.323-2.956 2.956s1.323 2.955 2.956 2.955h13.316v-5.9H276.83z" opacity=".3" fill="#7d868c"/><g fill="#5c6670"><path d="M4.5 180.552a4.5 4.5 0 0 1-4.5-4.5c0-33.337 27.122-60.46 60.458-60.46a4.5 4.5 0 1 1 0 9C32.084 124.593 9 147.677 9 176.052a4.5 4.5 0 0 1-4.5 4.5z"/><path d="M193.032 78.896h-57.408c-61.027 0-110.5 49.473-110.5 110.5s49.473 110.5 110.5 110.5h57.408c61.027 0 110.5-49.473 110.5-110.5s-49.472-110.5-110.5-110.5z"/><use xlink:href="#A" x="-26"/></g><use xlink:href="#B" x="-26" fill="#a4a9ad"/><use xlink:href="#C" x="-26" opacity=".3" fill="#7d868c"/><use xlink:href="#A" x="113.023" fill="#5c6670"/><use xlink:href="#B" x="113.024" fill="#a4a9ad"/><path d="M250.83 313.047c-1.632 0-2.956 1.323-2.956 2.956s1.323 2.955 2.956 2.955h13.316v-5.9H250.83z" opacity=".3" fill="#7d868c"/><path d="M412.176 222.958c-9.113 0-16.5 7.388-16.5 16.5 0 11.212-9.122 20.333-20.333 20.333S355 250.67 355 239.458v-59.82a53.16 53.16 0 0 0 .19-4.3v-27.362c0-22-13.483-40.825-32.63-48.7-9.63-12.493-24.733-20.55-41.727-20.55H253.48c-29.087 0-52.667 23.58-52.667 52.667v96.62H302.53a52.53 52.53 0 0 0 19.478-3.735v15.188c0 29.408 23.925 53.333 53.333 53.333s53.333-23.925 53.333-53.333c0-9.113-7.387-16.5-16.5-16.5z" fill="#5c6670"/><path d="M338.5 196.605c0 1.632 1.323 2.956 2.956 2.956h13.316v-5.912h-13.316c-1.633 0-2.956 1.324-2.956 2.956zm0 39.206c0 1.633 1.323 2.955 2.956 2.955h13.316v-5.9h-13.316c-1.633-.001-2.956 1.323-2.956 2.955zm2.955-61.764c-1.632 0-2.956 1.323-2.956 2.956s1.323 2.955 2.956 2.955h13.316v-5.9h-13.316zm-2.955 42.16c0 1.633 1.323 2.955 2.956 2.955h13.316v-5.9h-13.316c-1.633 0-2.956 1.322-2.956 2.955z" opacity=".3" fill="#7d868c"/><path d="M366.8 269.702h-13.9c-27.478 0-49.833-22.355-49.833-49.833 0-7.18 5.82-13 13-13s13 5.82 13 13c0 13.142 10.7 23.833 23.833 23.833h13.892c7.18 0 13 5.82 13 13s-5.82 13-13 13z" fill="#fadf8d"/><circle cx="313.874" cy="146.387" r="7.375" fill="#333e48"/><path d="M176.465 192.017c-.001 19.72 15.985 35.706 35.706 35.706s35.705-15.986 35.704-35.706l.001-91.052c-39.438 0-71.4 31.972-71.4 71.4l-.001 19.643z" fill="#a4a9ad"/><defs><path id="A" d="M137.124 232.286h-42c-7.7 0-14 6.3-14 14v89.672c0 7.7 6.3 14 14 14h56V246.286c0-7.7-6.3-14-14-14z"/><path id="B" d="M142.04 340.46v9.5h9.083v-18.583c-5.016 0-9.083 4.067-9.083 9.084z"/><path id="C" d="M137.808 313.047c-1.632 0-2.956 1.323-2.956 2.956s1.323 2.955 2.956 2.955h13.316v-5.9h-13.316z"/></defs></svg>