<svg xmlns="http://www.w3.org/2000/svg" viewBox="0 0 441.494 441.494"><path d="M101.453 196.202C45.692 196.202.444 241.186 0 296.843c13.07-5.96 27.596-9.284 42.898-9.284 26.392 0 50.473 9.882 68.756 26.14 18.283-16.26 42.364-26.14 68.756-26.14 7.73 0 15.26.855 22.506 2.46v-93.817l-101.463-.001z" fill="#333e48"/><path d="M111.268 210.2c-49.438 0-90.608 35.363-99.62 82.173a103.42 103.42 0 0 1 31.25-4.813c26.392 0 50.473 9.882 68.756 26.14 18.283-16.26 42.364-26.14 68.756-26.14 7.73 0 15.26.855 22.506 2.46V210.2h-91.65z" fill="#5c6670"/><path d="M340.04 196.202c55.76 0 101 44.983 101.453 100.64-13.07-5.96-27.596-9.284-42.898-9.284-26.392 0-50.473 9.882-68.756 26.14-18.283-16.26-42.364-26.14-68.756-26.14a103.97 103.97 0 0 0-22.506 2.46V196.2H340.04z" fill="#333e48"/><path d="M330.227 210.2c49.44 0 90.608 35.363 99.62 82.173a103.42 103.42 0 0 0-31.25-4.813c-26.392 0-50.473 9.882-68.756 26.14-18.283-16.26-42.364-26.14-68.756-26.14-7.73 0-15.26.855-22.506 2.46V210.2h91.65z" fill="#5c6670"/><path d="M276.88 183.006c0-31.002-25.132-56.134-56.134-56.134s-56.134 25.132-56.134 56.134a55.99 55.99 0 0 0 3.594 19.777c-2.224 2.544-3.582 5.865-3.582 9.5v60.8c0 15.523 6.304 29.574 16.5 39.734v17.44c0 6.02 4.88 10.902 10.902 10.902s10.9-4.882 10.902-10.9v-3.962a56.03 56.03 0 0 0 17.83 2.909c6.236 0 12.227-1.032 17.83-2.9v3.963c.001 6.02 4.88 10.9 10.9 10.9s10.902-4.88 10.902-10.902v-17.44c10.186-10.16 16.5-24.2 16.5-39.734v-60.8a14.35 14.35 0 0 0-3.583-9.5 56.01 56.01 0 0 0 3.593-19.777z" fill="#333e48"/><g fill="#5c6670"><circle cx="189.924" cy="168.091" r="5.576"/><circle cx="251.57" cy="168.091" r="5.576"/></g><path d="M208.135 204.8l-4.304-8.6h8.6zm25.225 0l4.304-8.6h-8.6z" fill="#fff"/><path d="M226.744 186.154a7.98 7.98 0 0 1-11.249.201l-3.513-3.4c-3.15-3.04-2.144-5.528 2.233-5.528h12.978c4.378 0 5.472 2.578 2.433 5.73l-2.882 3z" fill="#5c6670"/><path d="M189.924 130.103c0-16.44-14.884-29.768-14.884-29.768s-14.885 13.327-14.885 29.768 14.885 29.77 14.885 29.77 14.884-13.33 14.884-29.77z" fill="#333e48"/><path d="M183.254 130.103c0-9.075-8.214-16.43-8.214-16.43s-8.216 7.355-8.216 16.43 8.216 16.43 8.216 16.43 8.214-7.357 8.214-16.43z" fill="#5c6670"/><path d="M251.57 130.103c0-16.44 14.884-29.768 14.884-29.768s14.885 13.327 14.885 29.768-14.885 29.77-14.885 29.77-14.884-13.33-14.884-29.77z" fill="#333e48"/><path d="M258.24 130.103c0-9.075 8.214-16.43 8.214-16.43s8.216 7.355 8.216 16.43-8.216 16.43-8.216 16.43-8.214-7.357-8.214-16.43z" fill="#5c6670"/></svg>