<svg xmlns="http://www.w3.org/2000/svg" viewBox="0 0 421.246 421.246"><path d="M210.623 95.3c-14.606 0-26.448 11.842-26.448 26.448V373.56c0 14.608 11.842 26.448 26.448 26.448s26.448-11.84 26.448-26.448V121.75c0-14.607-11.84-26.45-26.448-26.45z" fill="#77bc1f"/><path d="M184.175 121.75v251.813c0 14.608 11.842 26.448 26.448 26.448V95.3c-14.606 0-26.448 11.842-26.448 26.45z" opacity=".2" fill="#222"/><g fill="#218649"><path d="M184.175 306.623h52.896v15h-52.896zm0 23.3h52.896v15h-52.896zm0 23.3h52.896v15h-52.896z"/><path d="M210.623 95.3c-14.606 0-26.448 11.842-26.448 26.448v76.03c7.048 6.228 16.304 10.015 26.448 10.015s19.4-3.787 26.448-10.015v-76.03c0-14.606-11.84-26.448-26.448-26.448z" opacity=".5"/></g><circle cx="210.623" cy="78.365" r="57.131" fill="#77bc1f"/><path d="M210.623 21.235c-31.553 0-57.13 25.58-57.13 57.13s25.578 57.13 57.13 57.13V21.235z" opacity=".2" fill="#222"/><path d="M210.623 71.155c-22.07 0-39.967 17.894-39.967 39.967v8.052c10.303 10.092 24.404 16.322 39.967 16.322s29.664-6.23 39.967-16.322v-8.052c0-22.073-17.894-39.967-39.967-39.967z" opacity=".5" fill="#218649"/><g fill="#333e48"><circle cx="257.818" cy="54.473" r="9.587"/><circle cx="163.429" cy="54.473" r="9.587"/></g><path d="M210.623 84.188c-17.86 0-32.342 14.48-32.342 32.343v45.888c0 17.863 14.48 32.343 32.342 32.343s32.342-14.48 32.342-32.343V116.53c0-17.863-14.48-32.343-32.342-32.343z" fill="#218649"/><path d="M210.623 84.188c-17.86 0-32.342 14.48-32.342 32.343v45.888c0 17.863 14.48 32.343 32.342 32.343V84.188z" opacity=".3" fill="#222"/><path d="M193.2 160.164L49.72 203.002c-13.42 4.006-27.546-3.624-31.553-17.042S21.8 158.415 35.2 154.408a26.59 26.59 0 0 1 5.74-1.015l149.462-8.94c4.428-.264 8.23 3.1 8.496 7.537.227 3.795-2.225 7.13-5.72 8.174z" fill="#229cd2"/><path d="M18.168 185.96a25.36 25.36 0 0 0 31.553 17.042l143.47-42.838a8.04 8.04 0 0 0 5.72-8.174L18.168 185.96z" opacity=".2" fill="#222"/><path d="M190.483 140.638l-166.75-10.495C9.776 129.264-.828 117.236.05 103.278s12.906-24.562 26.865-23.683a26.83 26.83 0 0 1 5.145.862l161.06 44.447c4.27 1.18 6.775 5.594 5.598 9.864a8.03 8.03 0 0 1-8.236 5.87z" fill="#67cfe3"/><path d="M.05 103.278c-.88 13.958 9.725 25.986 23.683 26.865l166.75 10.496c3.7.235 7.207-2.145 8.235-5.87L.05 103.278z" opacity=".2" fill="#222"/><path d="M228.057 160.164l143.47 42.838c13.42 4.006 27.546-3.624 31.553-17.042s-3.623-27.545-17.043-31.552a26.59 26.59 0 0 0-5.74-1.015l-149.462-8.94c-4.428-.264-8.23 3.1-8.496 7.537-.227 3.795 2.225 7.13 5.72 8.174z" fill="#229cd2"/><path d="M403.078 185.96a25.36 25.36 0 0 1-31.553 17.042l-143.47-42.838a8.04 8.04 0 0 1-5.72-8.174l180.742 33.97z" opacity=".2" fill="#222"/><path d="M230.764 140.638l166.75-10.496c13.958-.88 24.562-12.907 23.683-26.865S408.3 78.715 394.33 79.594a26.83 26.83 0 0 0-5.145.862l-161.06 44.447c-4.27 1.18-6.775 5.594-5.598 9.864 1.03 3.726 4.526 6.107 8.236 5.87z" fill="#67cfe3"/><path d="M421.196 103.278c.88 13.958-9.725 25.986-23.683 26.865l-166.75 10.496c-3.7.235-7.207-2.145-8.235-5.87l198.667-31.5z" opacity=".2" fill="#222"/></svg>
