<svg xmlns="http://www.w3.org/2000/svg" viewBox="0 0 378.8 378.8"><path d="M116.9 145.4c-12.1 12.1-31.8 12.1-44 0l-73-73c21.6-21.6 56.7-21.6 78.3 0l55.8 55.8-17.1 17.2z" fill="#218649"/><g fill="#006931"><path d="M7.6 66.1l72.3 72.3c8.3 8.3 21.7 8.3 30 0l17.2-17.2 7 7-17.1 17.2c-12.1 12.1-31.8 12.1-44 0l-73-73c2.3-2.3 4.9-4.4 7.6-6.3z"/><circle cx="82" cy="108.9" r="6.7"/><circle cx="68.4" cy="81.1" r="4.3"/><circle cx="33.8" cy="75" r="7.4"/></g><path d="M269.3 259.3c-12.1 12.1-12.1 31.8 0 44l73 73c21.6-21.6 21.6-56.7 0-78.3l-55.8-55.8-17.2 17.1z" fill="#218649"/><g fill="#006931"><path d="M348.7 368.6l-72.4-72.4c-8.3-8.3-8.3-21.7 0-30l17.2-17.2-7-7-17.2 17.2c-12.1 12.1-12.1 31.8 0 44l73 73c2.4-2.4 4.5-4.9 6.4-7.6z"/><circle cx="305.8" cy="294.2" r="6.7"/><circle cx="333.7" cy="307.8" r="4.3"/><circle cx="339.8" cy="342.4" r="7.4"/></g><path d="M109.5 259.3c12.1 12.1 12.1 31.8 0 44l-73 73c-21.6-21.6-21.6-56.7 0-78.3l55.8-55.8 17.2 17.1z" fill="#218649"/><g fill="#006931"><path d="M30.2 368.6l72.3-72.4c8.3-8.3 8.3-21.7 0-30L85.3 249l7-7 17.2 17.2c12.1 12.1 12.1 31.8 0 44l-73 73c-2.4-2.4-4.5-4.9-6.3-7.6z"/><circle cx="73" cy="294.2" r="6.7"/><circle cx="45.2" cy="307.8" r="4.3"/><circle cx="39" cy="342.4" r="7.4"/></g><path d="M261.9 145.4c12.1 12.1 31.8 12.1 44 0l73-73c-21.6-21.6-56.7-21.6-78.3 0l-55.8 55.8 17.1 17.2z" fill="#218649"/><g fill="#006931"><path d="M371.2 66.1l-72.4 72.3c-8.3 8.3-21.7 8.3-30 0l-17.2-17.2-7 7 17.2 17.2c12.1 12.1 31.8 12.1 44 0l73-73c-2.4-2.4-4.9-4.5-7.6-6.3z"/><circle cx="296.8" cy="108.9" r="6.7"/><circle cx="310.4" cy="81.1" r="4.3"/><circle cx="345" cy="75" r="7.4"/><path d="M207.9 328.9c2.8-7-1.2-12.8-8.7-12.8h-19.6c-7.6 0-11.5 5.8-8.7 12.8l13.5 34.6c2.8 7 7.3 7 10 0l13.5-34.6z"/></g><path d="M189.4 2.6c-23.2 0-42 18.8-42 42v70.8h83.9V44.6c.1-23.2-18.7-42-41.9-42z" fill="#218649"/><g fill="#333e48"><circle cx="158.2" cy="43.5" r="5"/><circle cx="220.6" cy="43.5" r="5"/></g><path d="M189.4 340c-62.6 0-113.5-50.9-113.5-113.5V188c0-62.6 50.9-113.5 113.5-113.5S302.9 125.4 302.9 188v38.4c0 62.7-50.9 113.6-113.5 113.6z" fill="#95d600"/><path d="M189.4 90.1c-54.1 0-97.9 43.9-97.9 97.9v38.4c0 54.1 43.9 97.9 97.9 97.9s97.9-43.9 97.9-97.9V188c0-54.1-43.8-97.9-97.9-97.9z" fill="#77bc1f"/><g fill="#006931"><path d="M287.4 201.8h-88.5l52-90c-2.8-2.3-5.8-4.4-8.9-6.4l-52.5 91-52.5-91c-3.1 2-6.1 4.1-8.9 6.4l52 90H91.5v10.9H180l-52 90c2.8 2.3 5.8 4.4 8.9 6.4l52.5-91 52.5 91c3.1-2 6.1-4.1 8.9-6.4l-52-90h88.5l.1-10.9z"/><path d="M165.6 248.4l-23.8-41.2 23.8-41.2h47.5l23.8 41.2-23.8 41.2h-47.5z"/></g></svg>