<svg xmlns="http://www.w3.org/2000/svg" viewBox="0 0 357.3 357.3"><path d="M118.1 206.8h-35c-27.6 0-50.1 22.4-50.1 50.1 0 7.5 1.7 14.6 4.6 21H23.2c-2.2-3.9-6.5-6.5-11.3-6.3-6.8.3-12.2 6-11.9 12.8s6 12.2 12.8 11.9c.3 0 .7 0 1-.1h38.3l.1.1h61.7l.1-.1h2.5c9.1 0 16.6-7.4 16.6-16.6v-57.8a14.98 14.98 0 0 0-15-15zm227.3 64.7c-4.8-.2-9.1 2.4-11.3 6.3h-14.5c3.1-6.6 4.6-13.7 4.6-21 0-27.6-22.4-50.1-50.1-50.1h-35a14.98 14.98 0 0 0-15 15v57.8c0 9.1 7.4 16.6 16.6 16.6h2.5l.1.1H305l.1-.1h38.3c.3 0 .7.1 1 .1 6.8.3 12.6-5.1 12.8-11.9.4-6.7-5-12.5-11.8-12.8z" fill="#218649"/><path d="M57.3 174.9c0 67.1 54.4 121.4 121.4 121.4s121.4-54.4 121.4-121.4H57.3z" fill="#77bc1f"/><path d="M82.2 326a26.83 26.83 0 0 0-18.8-17.3h39.8l-21 17.3z" fill="#00945e"/><path d="M120.5 215.2c-10.9 0-19.7 8.8-19.7 19.7V294H78.7c-2.2-3.9-6.5-6.5-11.3-6.3-6.8.3-12.2 6-11.9 12.8s6 12.2 12.8 11.9c.3 0 .7 0 1-.1h25.9l-2.5 1.6c-1.1-.2-2.2-.4-3.2-.3-6.8.3-12.2 6-11.9 12.8s6 12.2 12.8 11.9c5.9-.2 10.7-4.6 11.7-10.2l24.5-16.2c7.6-1.5 13.4-8.2 13.4-16.2v-60.9c.1-10.8-8.7-19.6-19.5-19.6z" fill="#2fba60"/><path d="M275.1 326a26.83 26.83 0 0 1 18.8-17.3h-39.8l21 17.3z" fill="#00945e"/><path d="M236.8 215.2c10.9 0 19.7 8.8 19.7 19.7V294h22.1c2.2-3.9 6.5-6.5 11.3-6.3 6.8.3 12.2 6 11.9 12.8s-6 12.2-12.8 11.9c-.3 0-.7 0-1-.1h-26l2.5 1.6c1.1-.2 2.2-.4 3.2-.3 6.8.3 12.2 6 11.9 12.8s-6 12.2-12.8 11.9c-5.9-.2-10.7-4.6-11.7-10.2L230.5 312c-7.6-1.5-13.4-8.2-13.4-16.2v-60.9c.1-10.9 8.9-19.7 19.7-19.7z" fill="#2fba60"/><g fill="#77bc1f"><path d="M244.2 53.1c41.5 0 75.1 33.6 75.1 75.1s-33.6 75.1-75.1 75.1H113.1c-41.5 0-75.1-33.6-75.1-75.1s33.6-75.1 75.1-75.1h131.1z"/><path d="M113.1 53.1C71.7 53.1 38 86.7 38 128.2s33.6 75.1 75.1 75.1h131.1c41.5 0 75.1-33.6 75.1-75.1s-33.6-75.1-75.1-75.1H113.1z"/></g><g fill="#2fba60"><path d="M150.5 53.1c0 5.1 4.1 9.2 9.2 9.2s9.2-4.1 9.2-9.2h-18.4zm26.6 0c0 6.8 5.5 12.3 12.3 12.3s12.3-5.5 12.3-12.3h-24.6z"/><circle cx="177.1" cy="71.6" r="5.3"/></g><circle cx="118.7" cy="53.1" r="34.1" fill="#77bc1f"/><circle cx="118.7" cy="53.1" r="22.9" fill="#fff"/><path d="M129.2 57.7h-21c-2.5 0-4.6-2.1-4.6-4.6s2.1-4.6 4.6-4.6h21c2.5 0 4.6 2.1 4.6 4.6s-2.1 4.5-4.6 4.6z" fill="#333e48"/><circle transform="matrix(.2298 -.9732 .9732 .2298 132.1825 273.1418)" cx="238.7" cy="53.1" r="34.1" fill="#77bc1f"/><circle transform="matrix(.2425 -.9701 .9701 .2425 129.2967 271.7221)" cx="238.7" cy="53.1" r="22.9" fill="#fff"/><path d="M249.1 57.7h-21c-2.5 0-4.6-2.1-4.6-4.6s2.1-4.6 4.6-4.6h21c2.5 0 4.6 2.1 4.6 4.6s-2 4.5-4.6 4.6z" fill="#333e48"/><path d="M315.6 128.2c4.7 0 8.4 3.8 8.4 8.4v.8c-4.6 40-38.6 71.2-79.8 71.2h-131c-41.2 0-75.3-31.2-79.8-71.2v-.8c0-4.7 3.8-8.4 8.4-8.4h273.8z" fill="#218649"/></svg>