<svg xmlns="http://www.w3.org/2000/svg" viewBox="0 0 512 512"><style><![CDATA[.I{enable-background:new}.J{fill:#333e48}]]></style><path d="M208.5 501.2a8.75 8.75 0 0 1-8.8-8.8V298.9a8.75 8.75 0 1 1 17.6 0v193.5a8.75 8.75 0 0 1-8.8 8.8z" class="J"/><path d="M199.8 381.7h17.6v15.6h-17.6v-15.6zm8.7-91.6a8.75 8.75 0 0 0-8.8 8.8v26.4h17.6v-26.4c0-4.8-3.9-8.8-8.8-8.8z" opacity=".5" fill="#222" class="I"/><path d="M255.5 381.7H116.8a8.75 8.75 0 0 1-8.8-8.8c0-2.3.9-4.6 2.6-6.2l68.9-68.9c3.5-3.4 9-3.3 12.4.1 3.3 3.4 3.3 8.9 0 12.3L138 364.1h117.5a8.75 8.75 0 1 1 0 17.6z" class="J"/><path d="M191.9 297.8c-3.4-3.4-9-3.4-12.4 0L152 325.3h24.9l15.1-15.1c3.3-3.4 3.3-9-.1-12.4z" opacity=".5" fill="#222" class="I"/><path d="M369.8 11.6c-6.7 0-13.2.7-19.5 2v50.7c4.1-.5 8.3-.8 12.5-.8 34.9 0 65.9 17.2 84.7 43.7 2 2.1 4.8 3.5 7.9 3.5 5.9 0 10.7-4.7 10.8-10.6-4.2-49.6-45.8-88.5-96.4-88.5z" fill="#fadf8d"/><path d="M452.8 58.7c-.3 1.5-.5 2.9-.5 4 0 12.2-9.9 22.1-22.1 22.1-1.9 0-3.7-.2-5.5-.7 8.7 6.5 16.4 14.3 22.7 23.1 2 2.1 4.8 3.5 7.9 3.5 5.9 0 10.7-4.7 10.8-10.6-1.1-15-5.9-29.1-13.3-41.4z" class="J"/><path d="M362.9 35.2c-4.3 0-8.5.3-12.6.8v28.3c4.1-.5 8.3-.8 12.5-.8 34.9 0 65.9 17.2 84.7 43.7 2 2.1 4.8 3.5 7.9 3.5.6 0 1.2-.1 1.9-.2-9.8-43.1-48.3-75.3-94.4-75.3z" opacity=".2" fill="#222" class="I"/><path d="M348.5 121.3c-19.5-12.2-38.2-24-48.9-37-.5-.8-1-1.5-1.5-2.2-7.1-9.6-2.9-15.7 3.4-13 5.6 3.2 11.9 4.9 18.4 4.9h37c20.4 0 37-16.6 37-37s-16.6-37-37-37h-37c-2.5 0-4.9.2-7.2.7-31.9 2.3-57.2 29-57.2 61.5 0 41.7 37.8 65.5 74.4 88.5 34.1 21.5 66.3 41.7 66.3 72.6 0 14.8-12 26.8-26.8 26.8h-.1c-7.1 0-13.8-2.8-18.9-7.9L291.2 183c-7-6.7-18-6.4-24.7.5-6.5 6.7-6.5 17.4 0 24.1l59.2 59.2c11.6 11.6 27.1 18.1 43.6 18.1h.1c34-.1 61.6-27.7 61.6-61.7.2-49.9-43.7-77.6-82.5-101.9z" fill="#ff637d"/><path d="M324.6 216.5l-33.3-33.3c-7-6.7-18-6.4-24.7.5-6.5 6.7-6.5 17.4 0 24.1l55.7 55.7c3-8.9 4.5-18.3 4.5-27.7 0-6.7-.8-13.1-2.2-19.3z" opacity=".3" fill="#222" class="I"/><path d="M377.4 12.7h-14.5c-5.8 0-10.6 4.7-10.6 10.6a10.54 10.54 0 0 0 10.6 10.6h14.5c5.8 0 10.6-4.7 10.6-10.6s-4.8-10.6-10.6-10.6z" fill="#fff"/><circle cx="362.9" cy="23.3" r="6.6" class="J"/><path d="M239 159.7h-41.1c-84 0-152.1 68.1-152.1 152.1v9.3c0 3.7 3 6.6 6.6 6.6 1.7 0 3.3-.6 4.5-1.8a42.97 42.97 0 0 1 31.9-14.1H239c42 0 76.1-34.1 76.1-76.1s-34.1-76-76.1-76z" fill="#ff637d"/><path d="M217.8 187.3h-15.6c-53.6 0-97 43.4-97 97h112.7c26.8 0 48.5-21.7 48.5-48.5s-21.8-48.5-48.6-48.5z" fill="#ff8f9c"/><path d="M66.1 235.8c-12.9 22.4-20.4 48.4-20.4 76.1v9.3c0 3.7 3 6.6 6.6 6.6 1.7 0 3.3-.6 4.5-1.8a42.97 42.97 0 0 1 31.9-14.1H239c42 0 76.1-34.1 76.1-76.1h-249z" opacity=".2" fill="#222" class="I"/></svg>