<svg xmlns="http://www.w3.org/2000/svg" xmlns:xlink="http://www.w3.org/1999/xlink" viewBox="0 0 348 348"><path d="M313,94.3v23.7h35c0-13.1-10.6-23.7-23.7-23.7H313z" fill="#ffb648"/><path d="M313,134.5v-16.6h28.6c0,9.2-7.4,16.6-16.6,16.6H313z" fill="#ed9900"/><path d="M223.1 26.8c-3.7 3.4-3.8 9.1-.4 12.8.5.5 1 .9 1.6 1.3l30.5 20.5c2.2 1.5 5.3.9 6.8-1.3.3-.4.5-.9.6-1.4.8 0 1.6-.1 2.3-.5 1 .9 2.4 1.4 3.8 1.2l.4-.1c.6 1.2 1.6 2.1 2.8 2.5 2.1.7 4.5-.1 5.7-2l19.5-31.1c2.7-4.2 1.4-9.8-2.9-12.5-4.2-2.7-9.8-1.4-12.5 2.9-.4.6-.7 1.2-.9 1.9l-6 17.4 2.2-19.6c.6-5-3-9.5-8-10-5-.6-9.5 3-10 8-.1.7-.1 1.4 0 2.1l1.7 14.6-5.4-15.7c-1.6-4.7-6.8-7.2-11.5-5.6s-7.2 6.8-5.6 11.5c.2.6.5 1.3.9 1.9l9.3 14.8-12.1-12.9c-3.5-3.9-9.2-4.1-12.8-.7z" fill="#a3382a"/><path d="M180.6 326.8c-3.5 0-6.3 2.8-6.3 6.3s2.8 6.3 6.3 6.3h36.8c3.5 0 6.3-2.8 6.3-6.3s-2.8-6.3-6.3-6.3h-18.3V280h-13.3v46.8h-5.2z" fill="#b36f0f"/><use xlink:href="#B" fill="#e97a6e"/><path d="M143.1 333.1c0 3.5 2.8 6.3 6.3 6.3h36.8c3.5 0 6.3-2.8 6.3-6.3s-2.8-6.3-6.3-6.3H168V280h-13.3v46.8h-5.2c-3.6 0-6.4 2.8-6.4 6.3z" fill="#ed9900"/><use xlink:href="#B" x="-31.2" fill="#e97a6e"/><path d="M14.9 148.2c-8.2 0-14.9 6.7-14.9 14.9S6.7 178 14.9 178h24.7c13.7 63.2 69.9 110.5 137.2 110.5 77.5 0 140.4-62.8 140.4-140.4V99.8c0-28.3-23-51.3-51.3-51.3s-51.3 23-51.3 51.3v48.4H66.3v-33.5c0-8.2-6.7-14.9-14.9-14.9s-14.9 6.7-14.9 14.9V127l-4.7-4.7c-5.8-5.5-14.9-5.5-20.6 0-6 5.7-6.2 15.2-.5 21.1l4.8 4.8h-.6z" fill="#e94f3d"/><circle cx="283.7" cy="93.6" r="7.7" fill="#333e48"/><path d="M102.9 198.9l1.9 4.8c-2.3 3.5-3.5 7.6-3.5 11.8 0 11 8.3 20.1 18.9 21.4 2.5 9.2 10.8 15.9 20.8 15.9 3.9 0 7.5-1 10.7-2.9 10.6 4.4 21.9 6.6 33.4 6.6h16.5c24.1 0 43.7-19.6 43.7-43.7s-19.6-43.7-43.7-43.7h-78.7c-11.9 0-21.6 9.7-21.6 21.6 0 2 .3 4.1.9 6l.1.2c.1.7.4 1.4.6 2z" fill="#e97a6e"/><path d="M327.2 157.4c.1.6.1 1.3 0 2-.6 3.9-4.1 6.5-8 6-3.9-.6-6.5-4.1-6-8l3.2-22.5c.2-1.6 1.5-3 3.2-3.2 2.1-.3 4 1.1 4.3 3.2l3.3 22.5z" fill="#a3382a"/><defs ><path id="B" d="M180.6 282.4c0 6.6 5.3 11.9 11.9 11.9s11.9-5.3 11.9-11.9V272c0-6.6-5.3-11.9-11.9-11.9s-11.9 5.3-11.9 11.9v10.4z"/></defs></svg>