<svg xmlns="http://www.w3.org/2000/svg" xmlns:xlink="http://www.w3.org/1999/xlink" viewBox="0 0 512 512"><use xlink:href="#B" fill="#ffb819"/><path d="M306.5 407.1c-1.9-4.8-7.4-7.2-12.2-5.3s-7.2 7.4-5.3 12.2l7.3 18.4c6-1.9 11.8-4.1 17.6-6.5l-7.4-18.8z" opacity=".2" fill="#222" enable-background="new"/><path d="M94.9,378L9.5,490.4c85.3,19.3,107.5-67,119.3-112.4H94.9z" fill="#ff8189"/><path d="M382.9 0c-38.7 0-71 27.4-78.7 63.8v.1c-6.4 25.2-7.5 36-13.7 45.8l-.1.1-1.4 1.9c-.9 1.4-1.9 2.8-3 4.1L94.9 378c37.5 27.5 63.4 43 115.5 47.7 124.8 11.3 226.8-80.3 226.8-205.5a232.93 232.93 0 0 0-2.6-34.6v-.2l-.6-3.4c-1.9-12.9-1.7-31.7 10.2-49.5 1.9-2.3 3.8-4.6 5.4-7.1 8.7-12.9 13.8-28.4 13.8-45.1 0-44.3-36-80.3-80.5-80.3z" fill="#ff5959"/><path d="M456,57.8c13.6,0,40,18.1,46.5,36.8h-63.3L456,57.8z" fill="#ffd923"/><path d="M452.6 118.2c11.6 0 35.2-7.6 40.7-23.6h-54.1l13.4 23.6z" fill="#ffb819"/><path d="M437.1 214.3v-1.1c-.2-6.3-.6-12.5-1.3-18.6-83.6.8-151.1 68.8-151.1 152.6 0 24.5 5.8 47.6 16 68.1 71.6-24.5 124.2-86.5 134.6-165.8l.1-1 .5-4.6.6-6.2.1-2 .3-5.7.1-2.2.1-7.5v-6z" fill="#ff8189"/><path d="M164.2 282.9L94.9 378c37.5 27.5 63.4 43 115.5 47.7 102.7 9.3 190.1-51.2 217.7-142.8H164.2z" opacity=".2" fill="#222" enable-background="new"/><use xlink:href="#B" x="-37.9" fill="#ffd923"/><path d="M299.1 124.3c-7.2-.4-14.4-.1-21.6 1L106.3 360.5c115.7 5.8 206.2-4.1 251.1-44.4 24.2-18.3 40.5-46.7 42.3-79.4 3.3-58.9-41.8-109.2-100.6-112.4z" opacity=".3" fill="#222" enable-background="new"/><path d="M300 124.3c-40.7-2.2-77.2 19.4-95.8 52.6l-97.9 175.8c115.5 6.3 205.9-2.8 250.3-42.6 23.5-17.7 39.3-45.2 41-76.9 3.1-57-40.5-105.8-97.6-108.9z" fill="#ff5959"/><circle cx="417.2" cy="68.1" r="11.8" fill="#333e48"/><defs ><path id="B" d="M390.5 493.2h-49.9l-34.2-86.1c-1.9-4.8-7.4-7.2-12.2-5.3s-7.2 7.4-5.3 12.2l31.4 79.2h-24.7a9.39 9.39 0 1 0 0 18.8h94.7a9.39 9.39 0 0 0 9.4-9.4c.2-5.2-4-9.4-9.2-9.4z"/></defs></svg>