<svg xmlns="http://www.w3.org/2000/svg" viewBox="0 0 410.4 410.4"><style><![CDATA[.F{fill:#333e48}.G{fill:#ed9900}]]></style><path d="M8.6 268.5c-4.8 0-8.6-3.9-8.6-8.6v-77c0-28.4 23.1-51.5 51.5-51.5h33.9c4.8 0 8.6 3.9 8.6 8.6 0 4.8-3.9 8.6-8.6 8.6H51.5c-18.9 0-34.2 15.4-34.2 34.2v77a8.71 8.71 0 0 1-8.7 8.7z" class="G"/><path d="M0 190.5v4.4l12-2.2-12-2.2zm2.8-24.3c-.7 2-1.3 4.1-1.7 6.2l11.3 7.8-9.6-14zM0 237l17.3-3.2v-2.3L0 228.4v8.6zm20.6-95.3l9.7 8.5-5.8-11.1-3.9 2.6zm-3.3 70.4v-4.7l-12.8 2.4 12.8 2.3zm27.1-80.2l2.6 14.3 2.7-14.8-5.3.5zm-22.7 34.3c.6-1.1 1.3-2.2 2.1-3.2l-8.2-5.7 6.1 8.9z" class="F"/><path d="M144.4 173c-19.4 0-35.1 15.7-35.1 35.1v34.8H106c-16.5 0-30 13.4-30 30v54.3c0 13.5 10.9 24.4 24.4 24.4h44.1c3.9 0 7-3.1 7-7 0-15-11.3-27.4-25.8-29.2v-31.3h12.6c22.7 0 41.1-18.4 41.1-41.1v-35c.1-19.3-15.6-35-35-35z" fill="#b36f0f"/><path d="M109.3 226.3v12.8l34.8-6.4-34.8-6.4zm-32.7 40.9c-.4 1.8-.5 3.7-.5 5.6V283l43-7.9-42.5-7.9zm63.8-47l39.1 7.2V213l-39.1 7.2zm25.4 53.5c4.7-4.2 8.4-9.4 10.7-15.3l-46.8 8.6 36.1 6.7zm-40 29.9v-8.3l-22.6 4.2 22.6 4.1z" class="F"/><path d="M312.6 315.3V206.7c0-13.5-10.9-24.4-24.4-24.4s-24.4 10.9-24.4 24.4v120.4c0 13.5 10.9 24.4 24.4 24.4h44.1c3.9 0 7-3.1 7-7 0-15.2-11.7-27.8-26.7-29.2z" fill="#b36f0f"/><path d="M263.7 267.8V282l38.5-7.1-38.5-7.1zm0-40.1v8.8l23.8-4.4-23.8-4.4zm48.9 28.8v-13.4l-36.5 6.7 36.5 6.7zM283 213l29.6 5.5v-10.9L283 213zm29.6 88.5v-13.4l-36.5 6.7 36.5 6.7z" class="F"/><path d="M305.8 117.7H113.3c-33.8 0-61.1 27.4-61.1 61.1v71.6h202.9c40.8 0 73.8-33.1 73.8-73.8v-35.7c0-12.9-10.3-23.2-23.1-23.2z" class="G"/><path d="M131.2 214.8l-17.9-97.1h35.8l-17.9 97.1zm89.3 0l-17.9-97.1h35.8l-17.9 97.1zm-44.9-29L163 117.7h25.1l-12.5 68.1zM71.4 134.3l9.5 51.4 11.9-64.5a62.72 62.72 0 0 0-21.4 13.1zm194.5 51.5l-12.5-68.1h25.1l-12.6 68.1z" class="F"/><path d="M287,152.9h13.3v16.6H287V152.9z" fill="#e8e8e8"/><path d="M408.1 112.2l-55-44.4h-31c-31 0-56.2 25.2-56.2 56.2s25.2 56.2 56.2 56.2h31c31 0 56.2-25.2 56.2-56.2 0-4.1-.4-8-1.2-11.8z" class="G"/><path d="M295 74.7l6.5 35.6 7.5-41c-4.8 1.2-9.5 3-14 5.4zm33.8-6.9l4.7 25.8 4.7-25.8h-9.4z" class="F"/><path d="M400.7 116.1h-77c-20.3 0-36.7 16.4-36.7 36.7a38.37 38.37 0 0 0 .9 8.3 38.37 38.37 0 0 0-.9 8.3c0 17.1 11.7 31.5 27.6 35.6-1.8-4.3-2.7-9-2.7-13.9v-1.2c4.6 4.8 10.6 8.4 17.3 10.1-1.4-3.4-2.2-6.9-2.6-10.5 2.8-.2 5.6-.8 8.3-1.6l52.8-12.5c13-3.3 22.7-15.1 22.7-29.1V126c0-5.5-4.3-9.9-9.7-9.9z" fill="#e8e8e8"/><g class="F"><circle cx="344.1" cy="101.4" r="5.2"/><path d="M410.4 113.2c0-1.6-1.3-2.9-2.9-2.9l-5.1.1c-5.4 0-6.6 3.1-2.7 6.8l4.3 4.1a9.95 9.95 0 0 0 6.4 2.7v-10.8zM290.6 58.8a13.19 13.19 0 1 0 0 26.4h8.1c2.8 0 5.2-2.3 5.2-5.2v-8c-.1-7.3-6-13.2-13.3-13.2z"/></g><path d="M292.1 82.4c-4.9 0-8.9-4-8.9-8.9s4-8.9 8.9-8.9 8.9 4 8.9 8.9v8.1c0 .4-.4.8-.8.8h-8.1z" fill="#ff9c9f"/><path d="M96.8 173c-19.4 0-35.1 15.7-35.1 35.1v34.8h-3.3c-16.5 0-30 13.4-30 30v54.3c0 13.5 10.9 24.4 24.4 24.4H97c3.9 0 7-3.1 7-7 0-15-11.3-27.4-25.8-29.2v-31.3h12.6c22.7 0 41.1-18.4 41.1-41.1v-35c0-19.3-15.7-35-35.1-35z" class="G"/><path d="M61.7 226.3v12.8l34.8-6.4-34.8-6.4zM29 267.2c-.4 1.8-.5 3.7-.5 5.6V283l43-7.9-42.5-7.9zm63.8-47l39.1 7.2V213l-39.1 7.2zm25.4 53.5c4.7-4.2 8.4-9.4 10.7-15.3L82.1 267l36.1 6.7zm-40 29.9v-8.3l-22.5 4.2 22.5 4.1z" class="F"/><path d="M265 315.3V206.7c0-13.5-10.9-24.4-24.4-24.4s-24.4 10.9-24.4 24.4v120.4c0 13.5 10.9 24.4 24.4 24.4h44.1c3.9 0 7-3.1 7-7 0-15.2-11.8-27.8-26.7-29.2z" class="G"/><path d="M216.1 267.8V282l38.5-7.1-38.5-7.1zm0-40.1v8.8l23.8-4.4-23.8-4.4zm48.9 28.8v-13.4l-36.5 6.7 36.5 6.7zM235.3 213l29.6 5.5v-10.9l-29.6 5.4zm29.7 88.5v-13.4l-36.5 6.7 36.5 6.7z" class="F"/></svg>