<svg xmlns="http://www.w3.org/2000/svg" viewBox="0 0 377.8 377.8"><path d="M311.7 340.7V238.2c0-13.8-11.2-25-25-25s-25 11.2-25 25v114.6c0 13.8 11.2 25 25 25h45.1a7.17 7.17 0 0 0 7.2-7.2c0-15.6-12-28.5-27.3-29.9zM153.1 175.9c-23.1 0-41.9 18.8-41.9 41.9V259c-14.5 2.5-25.5 15-25.5 30.2v63.6c0 13.8 11.2 25 25 25h45.1a7.17 7.17 0 0 0 7.2-7.2c0-15.4-11.5-28-26.4-29.8v-32.3h9.3c27.1 0 49-21.9 49-49v-41.7c.1-23.2-18.6-41.9-41.8-41.9z" fill="#d9c47c"/><path d="M301.1 150.5H88c-12.6 0-24.8 4.2-34.7 11.9-26.8 5.9-46.9 29.8-46.9 58.3v19.6h12v-19.6c0-15.3 7.2-28.9 18.4-37.6a56.65 56.65 0 0 0-5.3 23.9v55c-9.9 5.1-16.6 15.4-16.6 27.2v63.6c0 13.8 11.2 25 25 25H85a7.17 7.17 0 0 0 7.2-7.2c0-15.4-11.5-28-26.4-29.8v-32.3H75c14.8 0 28.1-6.6 37.1-16.9h78.6v61.3c0 13.8 11.2 25 25 25h45.1a7.17 7.17 0 0 0 7.2-7.2c0-15.7-12-28.5-27.3-30v-49.2h13.5c37.8 0 68.4-30.6 68.4-68.4v-51.3c-.1-11.7-9.6-21.3-21.5-21.3z" fill="#fadf8d"/><path d="M22.3 236.8L20 249.5c-.8 4.2-4.8 7.1-9.1 6.3-3.3-.6-5.7-3.2-6.3-6.3l-2.3-12.7c-1-5.5 2.7-10.8 8.2-11.8s10.8 2.7 11.8 8.2c.2 1.2.2 2.4 0 3.6z" fill="#ff9e16"/><path d="M337.3,46.8c11-7.7,26.2-5,33.9,6s5,26.2-6,33.9L337.3,46.8z" fill="#fadf8d"/><path d="M342.3 53.9c7.1-5 16.9-3.2 21.9 3.9s3.2 16.9-3.9 21.9l-18-25.8z" fill="#bf9b5f"/><circle cx="253.2" cy="120.7" r="120.7" fill="#ed9900"/><path d="M366.6 123.4L337.3 79c-9.8-13.9-24.3-24.2-41.1-28.5-43-5.5-74.7 30.2-74.7 70.3s32.5 72.6 72.6 72.6h51.7c15.2 0 27.6-12.4 27.6-27.6v-24.4c0-6.9-2.6-13.2-6.8-18z" fill="#fadf8d"/><g fill="#333e48"><circle cx="294.2" cy="113" r="7.3"/><path d="M361.1 142.9c-4.5 4.7-12.1 4.8-16.7.3l-5.2-5.1c-4.7-4.5-3.2-8.2 3.3-8.2h19.3c6.5 0 8.1 3.8 3.6 8.5l-4.3 4.5z"/></g><path d="M220.4 55.8c-11-7.7-26.2-5-33.9 6s-5 26.2 6 33.9l27.9-39.9z" fill="#fadf8d"/><path d="M215.4 62.8c-7.1-5-16.9-3.2-21.9 3.9s-3.2 16.9 3.9 21.9l18-25.8z" fill="#bf9b5f"/></svg>