<svg xmlns="http://www.w3.org/2000/svg" xmlns:xlink="http://www.w3.org/1999/xlink" viewBox="0 0 512 512"><style><![CDATA[.G{fill:#ffb648}.H{fill:#d8d2c4}.I{enable-background:new}]]></style><path d="M144.2 389.2c40.8 0 75.3-27 86.5-64.1-8.2 11.5-21.6 18.9-36.8 18.9-25 0-45.3-20.3-45.3-45.3V190c-1.1-42.4-35.8-76.5-78.5-76.5-30.7 0-57.3 17.6-70.2 43.3 30.9 8.1 53.8 36.3 53.8 69.8v72.2c.1 49.9 40.6 90.4 90.5 90.4z" class="G"/><path d="M0 156.8c30.2 7.9 52.6 34.9 53.7 67.3 3.7.5 7.5.8 11.3.8 37.7 0 69.4-25.6 78.7-60.4-11.1-29.8-39.8-51.1-73.5-51.1-30.7.1-57.3 17.7-70.2 43.4z" class="H"/><path d="M110.5 375.8v6.8a90.21 90.21 0 0 0 33.7 6.5c40.8 0 75.3-27 86.5-64.1-8.2 11.5-21.6 18.9-36.8 18.9-25 0-45.3-20.3-45.3-45.3V286c-4.7 9.2-8.6 18.9-11.5 28.8-16.3 15.3-26.6 37-26.6 61z" opacity=".2" fill="#222" class="I"/><use xlink:href="#B" fill="#ff9500"/><use xlink:href="#B" fill="#ed9900"/><path d="M297.3 206.9c-85.6 0-154.9 69.4-154.9 154.9V447h215.4V206.9h-60.5z" class="G"/><path d="M198.4 304.7c-39.3 0-71.1 31.8-71.1 71.1V447H274c9.8 0 17.8-8 17.8-17.8s-8-17.8-17.8-17.8h-14c6.3-10.8 9.6-23.1 9.5-35.6.1-39.2-31.8-71.1-71.1-71.1zm121.9-3.9c-12.9 0-23.3 10.5-23.3 23.3V447h56.1v-35.6h-9.4v-87.3c-.1-12.9-10.5-23.3-23.4-23.3z" opacity=".2" fill="#222" class="I"/><path d="M358.3 118.7l-82.1-52.2c-5.1-3.3-9.9-1-10.5 5.1l-9.9 96.7c-.6 6.1 3.4 8.9 8.9 6.2l92.9-45c5.5-2.7 5.8-7.5.7-10.8z" class="G"/><path d="M323.8 123.6l-38.2-24.3-4.6 45.1 42.8-20.8z" class="H"/><path d="M276.2 66.5c-2.6-1.6-5-1.9-6.9-1l41.9 86.5 46.5-22.5c5.5-2.7 5.8-7.5.6-10.8l-82.1-52.2z" opacity=".2" fill="#222" class="I"/><path d="M384.5 118.7l82.1-52.2c5.1-3.3 9.9-1 10.5 5.1l9.9 96.7c.6 6.1-3.4 8.9-8.9 6.2l-92.9-45c-5.6-2.7-5.9-7.5-.7-10.8z" class="G"/><path d="M419,123.6l38.2-24.3l4.6,45.1L419,123.6z" class="H"/><path d="M473.5 65.6L431.6 152l46.5 22.5c5.5 2.7 9.5-.1 8.9-6.2l-10-96.7c-.3-3-1.6-5.1-3.5-6z" opacity=".2" fill="#222" class="I"/><path d="M371.4 108.4c-69.5 0-127.5 49.4-140.6 115 48.3 10.5 89.7 39.2 116.7 78.6 5 7.9 13.8 13.1 23.9 13.1 10 0 18.9-5.2 23.9-13.1 27-39.4 68.5-68.2 116.7-78.6-13.2-65.6-71.1-115-140.6-115z" class="G"/><path d="M460.7 139.6c-43.6 39.5-71 96.6-71 160.1 0 2.9.1 5.8.2 8.7 2.1-1.8 3.9-3.9 5.4-6.2 27-39.4 68.5-68.2 116.7-78.6-6.8-33.9-25.4-63.4-51.3-84zm-178.6 0c43.6 39.5 71 96.6 71 160.1 0 2.9-.1 5.8-.2 8.7-2.1-1.8-3.9-3.9-5.4-6.2-27-39.4-68.5-68.2-116.7-78.6 6.7-33.9 25.3-63.4 51.3-84z" class="H"/><g fill="#333e48"><path d="M412.7 280.2H330c6.3 6.9 12.2 14.2 17.5 21.9 5 7.9 13.8 13.1 23.9 13.1 10 0 18.9-5.2 23.9-13.1 5.3-7.8 11.1-15.1 17.4-21.9z"/><circle cx="303.2" cy="201.1" r="8.7"/><circle cx="439.5" cy="201.1" r="8.7"/></g><path d="M193.5 304.7c-39.3 0-71.1 31.8-71.1 71.1V447h146.7c9.8 0 17.8-8 17.8-17.8s-8-17.8-17.8-17.8h-14c6.3-10.8 9.6-23.1 9.5-35.6 0-39.2-31.8-71.1-71.1-71.1zm98.5 19.4V447h64.9c9.8 0 17.8-8 17.8-17.8s-8-17.8-17.8-17.8h-18.2v-87.3c0-12.9-10.5-23.3-23.3-23.3-12.9 0-23.4 10.4-23.4 23.3z" class="G"/><defs ><path id="B" d="M359.5 300.8c-12.9 0-23.3 10.5-23.3 23.3V447h63.7c9.8 0 17.8-8 17.8-17.8s-8-17.8-17.8-17.8h-17v-87.3c-.1-12.9-10.5-23.3-23.4-23.3z"/></defs></svg>