<svg xmlns="http://www.w3.org/2000/svg" viewBox="0 0 413.684 413.684"><path d="M5.88 152.985a5.88 5.88 0 0 0-5.88 5.88l.016.426-.016.002c2.927 48.698 39.53 88.298 86.828 95.876L54.66 287.34a5.19 5.19 0 0 0 0 7.34 9.41 9.41 0 0 0 .275.257l-.008.01c35.88 31.812 90.795 30.54 125.153-3.818 17.4-17.388 26.277-40.04 26.72-62.826h.042v-75.317H5.88z" fill="#0075c9"/><g fill="#fff"><circle cx="72.23" cy="196.278" r="25.678"/><circle cx="140.238" cy="274.874" r="18.455"/><circle cx="140.238" cy="193.373" r="14.108"/></g><path d="M407.803 152.985a5.88 5.88 0 0 1 5.88 5.88l-.015.426.015.001c-2.927 48.698-39.53 88.298-86.828 95.876l32.168 32.17a5.19 5.19 0 0 1 0 7.34 9.41 9.41 0 0 1-.275.257l.008.01c-35.88 31.812-90.795 30.54-125.153-3.818-17.388-17.388-26.277-40.04-26.72-62.826h-.042v-75.317l200.96.001z" fill="#0075c9"/><g fill="#fff"><circle cx="341.454" cy="196.278" r="25.678"/><circle cx="273.446" cy="274.874" r="18.456"/><circle cx="273.446" cy="193.373" r="14.109"/></g><path d="M227.305 306.874c0 11.3-9.162 20.462-20.463 20.462s-20.463-9.162-20.463-20.462V134.066c0-11.3 9.162-20.462 20.463-20.462s20.463 9.162 20.463 20.462v172.808z" fill="#333e48"/><path d="M186.38 253.57h40.926v15.938H186.38zm0-33.1h40.926v15.938H186.38z" fill="#5c6670"/><g fill="#333e48"><path d="M206.842 130.242c-.77 0-1.54-.293-2.128-.882L166.84 91.486a3.01 3.01 0 0 1 0-4.255 3.01 3.01 0 0 1 4.255 0l37.875 37.875a3.01 3.01 0 0 1 0 4.255 3 3 0 0 1-2.128.881z"/><path d="M206.842 130.242c-.77 0-1.54-.293-2.128-.882a3.01 3.01 0 0 1 0-4.255L242.6 87.23a3.01 3.01 0 0 1 4.255 0 3.01 3.01 0 0 1 0 4.255L208.97 129.36c-.588.6-1.358.883-2.128.883z"/></g></svg>