<svg xmlns="http://www.w3.org/2000/svg" viewBox="0 0 512 512"><style><![CDATA[.F{enable-background:new}.G{fill:#222}]]></style><path d="M452.5 252.4c-1.2 0-2.4-.2-3.5-.7-4.6-2-6.8-7.3-4.8-11.9l37-87.1c2-4.6 7.3-6.8 11.9-4.8s6.8 7.3 4.8 11.9l-37 87.1c-1.5 3.3-4.8 5.5-8.4 5.5z" fill="#09f"/><path d="M481.2 152.7l-10.7 25.2c4.5 4 10.3 6.6 16.7 7.1l10.7-25.2c2-4.6-.2-9.9-4.8-11.9s-9.9.2-11.9 4.8z" opacity=".2" class="F G"/><circle cx="489.5" cy="156.2" r="22.5" fill="#dfeef7"/><path d="M489.5 178.7c12.4 0 22.5-10.1 22.5-22.5s-10.1-22.5-22.5-22.5v45z" opacity=".1" class="F G"/><path d="M406.3 240.5c-.6 0-1.2-.1-1.8-.3-4.9-1-8-5.8-7-10.7l19.7-94.2c1-4.9 5.8-8 10.7-7s8 5.8 7 10.7l-19.7 94.3c-.9 4.3-4.7 7.2-8.9 7.2z" fill="#09f"/><path d="M417.1 135.3l-5.7 26.9c4.4 2.6 9.4 3.9 14.5 3.9 1.1 0 2.2-.1 3.3-.2l5.6-26.9c1.1-4.9-2.1-9.7-7-10.7-4.9-1.1-9.7 2.1-10.7 7z" opacity=".2" class="F G"/><circle cx="426" cy="137.1" r="22.5" fill="#dfeef7"/><path d="M426 159.7c12.4 0 22.5-10.1 22.5-22.5s-10.1-22.5-22.5-22.5v45z" opacity=".1" class="F G"/><path d="M64.4 445.5C28.8 445.5 0 416.7 0 381.1s28.8-64.4 64.4-64.4H323c14.4 0 26.1-11.7 26.1-26.1v-25.5c0-35.6 28.8-64.4 64.4-64.4s64.4 28.8 64.4 64.4v25.5c0 85.4-69.5 154.9-154.9 154.9H64.4z" fill="#0075c9"/><g class="G F"><path d="M323 316.6H199v128.8h124c85.4 0 154.9-69.5 154.9-154.9V265c0-35.6-28.8-64.4-64.4-64.4s-64.4 28.8-64.4 64.4v25.5c0 14.4-11.7 26.1-26.1 26.1z" opacity=".1"/><path d="M64.4 316.6c-9.6.1-18.8 2.2-27 5.9 31.5 56.8 92.1 95.2 161.6 95.2 102 0 184.7-82.7 184.7-184.7 0-8.2-.6-16.3-1.6-24.2-19.7 11-33 32-33 56.2v25.5c0 14.4-11.7 26.1-26.1 26.1H64.4z" opacity=".1"/></g><circle cx="199" cy="233.1" r="166.5" fill="#09f"/><g class="G F"><path d="M170.3 364.8c-42.3 0-81.1-15.4-110.9-41.1a167.82 167.82 0 0 0 48.3 48.5c19.7 6.9 40.7 10.7 62.7 10.7 84.4 0 153.1-68.7 153.1-153.1 0-68.5-55.8-124.3-124.3-124.3-55.9 0-101.3 45.5-101.3 101.3 0 45.6 37.1 82.8 82.8 82.8 37.6 0 68.1-30.6 68.1-68.1 0-31.1-25.3-56.3-56.3-56.3-25.8 0-46.8 21-46.8 46.8 0 21.7 17.6 39.3 39.3 39.3 18.3 0 33.2-14.9 33.2-33.2 0-5-4.1-9.1-9.1-9.1s-9.1 4.1-9.1 9.1c0 8.3-6.8 15.1-15.1 15.1-11.6 0-21.1-9.5-21.1-21.1 0-15.8 12.9-28.7 28.7-28.7 21 0 38.1 17.1 38.1 38.1 0 27.5-22.4 49.9-49.9 49.9-35.7 0-64.7-29-64.7-64.7 0-45.8 37.3-83.1 83.1-83.1 58.6 0 106.2 47.7 106.2 106.2 0 74.5-60.6 135-135 135z" opacity=".2"/><path d="M199,399.6c92,0,166.6-74.5,166.6-166.5S291,66.5,199,66.5V399.6z" opacity=".2"/></g><circle cx="489.5" cy="156.2" r="5.8"/><circle cx="427.5" cy="137.1" r="5.8"/></svg>