<svg xmlns="http://www.w3.org/2000/svg" viewBox="0 0 415 415"><g fill="#0075c9"><path d="M0 146.8c18.8-18.8 49.2-18.8 68 0L96.2 175c2.8 2.8 4.9 6.3 6 10.1 2.5 8.2.5 17.5-6 23.9L68 237.2c-18.8 18.8-49.2 18.8-68 0L45.2 192 0 146.8z"/><path d="M81.3 170.6c-9.9 0-17.9 8-17.9 17.9 0 .7 0 1.4.1 2.1 9.6 65.2 65.8 115.2 133.7 115.2h83.9c67.9 0 124.1-50 133.7-115.2.1-.7.1-1.4.1-2.1 0-9.9-8-17.9-17.9-17.9H81.3z"/></g><g fill="#09f"><circle cx="187.2" cy="193" r="10.7"/><circle cx="153.8" cy="203.6" r="10.7"/><circle cx="125" cy="185.9" r="7.7"/><path d="M412.9 180.2c1.3 2.5 2 5.3 2 8.3l-.1 2.1c-9.6 65.2-65.8 115.2-133.7 115.2h-1.6c7.1-68.7 63.7-122.6 133.4-125.6zm-201.8 98a18.1 18.1 0 1 1 0 36.2h-53.8c0-19.9 16.2-36.1 36.1-36.1l17.7-.1z"/></g><circle cx="269.1" cy="261.6" r="8.4" fill="#333e48"/></svg>