<svg xmlns="http://www.w3.org/2000/svg" xmlns:xlink="http://www.w3.org/1999/xlink" viewBox="0 0 403.6 403.6"><style><![CDATA[.H{fill:#0075c9}.I{fill:#0063a0}.J{fill:#7d868c}.K{enable-background:new}.L{fill:#d1d3d3}]]></style><path d="M167.1 347.7c-1-7.3-7.3-12.9-14.8-13V231c0-8.1-6.6-14.8-14.8-14.8H93.2c-8.1 0-14.8 6.6-14.8 14.8v104.4c0 8 6.5 14.5 14.5 14.5h72.5c.9 0 1.7-.8 1.7-1.7v-.5z" class="I"/><path d="M138.2 310.9a3.12 3.12 0 0 1-3.1-3.1 3.12 3.12 0 0 1 3.1-3.1h14.1v6.2h-14.1z" opacity=".3" class="J K"/><use xlink:href="#B" class="L"/><path d="M297.2 347.7c-1-7.3-7.3-12.9-14.8-13V231c0-8.1-6.6-14.8-14.8-14.8h-44.3c-8.1 0-14.8 6.6-14.8 14.8v104.4c0 8 6.5 14.5 14.5 14.5h72.5c.9 0 1.7-.8 1.7-1.7a.45.45 0 0 0 0-.5z" class="I"/><path d="M268.4 310.9a3.12 3.12 0 0 1-3.1-3.1 3.12 3.12 0 0 1 3.1-3.1h14v6.2h-14z" opacity=".3" class="J K"/><use xlink:href="#B" x="130.1" class="L"/><path d="M62.6 144.7c-.7 0-1.3-.3-1.9-.8-12.7-12.7-33.4-12.7-46.1 0a2.66 2.66 0 0 1-3.7 0 2.66 2.66 0 0 1 0-3.7c14.8-14.8 38.8-14.8 53.5 0a2.66 2.66 0 0 1 0 3.7c-.5.5-1.1.8-1.8.8z" class="H"/><path d="M14.5 149.2l-6.8 4.7c-2.3 1.6-5.3 1-6.9-1.2-1.2-1.7-1.1-4 0-5.7l4.7-6.8a6.42 6.42 0 0 1 9-1.6c2.9 2 3.6 6 1.6 9a4.1 4.1 0 0 1-1.6 1.6z" class="I"/><g class="H"><path d="M210.6 103.9c49.9 0 90.3 40.4 90.3 90.3s-40.4 90.3-90.3 90.3H104.8c-49.9 0-90.3-40.4-90.3-90.3s40.4-90.3 90.3-90.3h105.8z"/><path d="M129.7 347.7c-1-7.3-7.3-12.9-14.8-13v-94.2c0-8.1-6.6-14.8-14.8-14.8H55.8c-8.1 0-14.8 6.6-14.8 14.8v94.9c0 8 6.5 14.5 14.5 14.5H128c.9 0 1.7-.8 1.7-1.7v-.5z"/></g><use xlink:href="#B" x="-37.4" class="L"/><path d="M100.8,310.9c-1.7,0-3.1-1.4-3.1-3.1c0-1.7,1.4-3.1,3.1-3.1h14v6.2H100.8z" opacity=".3" class="J K"/><path d="M259.8 347.7c-1-7.3-7.3-12.9-14.8-13v-94.2c0-8.1-6.6-14.8-14.8-14.8h-44.3c-8.1 0-14.8 6.6-14.8 14.8v94.9c0 8 6.5 14.5 14.5 14.5h72.5c.9 0 1.7-.8 1.7-1.7a.45.45 0 0 0 0-.5z" class="H"/><use xlink:href="#B" x="92.7" class="L"/><path d="M231 310.9a3.12 3.12 0 0 1-3.1-3.1 3.12 3.12 0 0 1 3.1-3.1h14v6.2h-14z" opacity=".3" class="J K"/><use xlink:href="#C" class="H"/><path d="M335.9 72.7a1.58 1.58 0 0 0 1.6-1.6v-.2c-.8-5.7-5.8-10.1-11.7-10.1s-11 4.4-11.8 10.2v.2a1.58 1.58 0 0 0 1.6 1.6h20.3z" fill="#ff9c9f"/><path d="M349.8 109.2h-9.5c-9.9-30.7-38.7-52.9-72.7-52.9-42.2 0-76.4 34.2-76.4 76.3v47.3c0 20.4 16.5 36.9 36.9 36.9h121.6c29.7 0 53.8-24.1 53.8-53.8s-24-53.8-53.7-53.8z" class="H"/><g fill="#333e48"><circle cx="273.5" cy="101.8" r="6.9"/><circle cx="325.7" cy="101.8" r="6.9"/></g><path d="M341.4 180.2v14.1a4.48 4.48 0 0 1-4.5 4.5h-14.1a4.48 4.48 0 0 1-4.5-4.5v-14.1h23.1zm59.4 0v14.1a4.48 4.48 0 0 1-4.5 4.5h-14.1a4.48 4.48 0 0 1-4.5-4.5v-14.1h23.1z" fill="#f9f3e4"/><use xlink:href="#C" x="-112.9" class="H"/><path d="M223 72.7a1.58 1.58 0 0 0 1.6-1.6v-.2c-.8-5.7-5.8-10.1-11.7-10.1s-10.9 4.4-11.7 10.1v.2a1.58 1.58 0 0 0 1.6 1.6H223z" fill="#ff9c9f"/><path d="M318.3 137a6.38 6.38 0 0 1-6.4-6.4v-.9c1-6.9 7-12 13.9-12s12.9 5.2 13.9 12v.9a6.38 6.38 0 0 1-6.4 6.4h-15z" class="H"/><use xlink:href="#D" class="I"/><path d="M372.1 137c-3.5 0-6.4-2.9-6.4-6.4v-.9c1-6.9 7-12 13.9-12s12.9 5.2 13.9 12v.9a6.38 6.38 0 0 1-6.4 6.4h-15z" class="H"/><use xlink:href="#D" x="53.9" class="I"/><defs ><path id="B" d="M161.8 338.3c2.8 2.3 4.8 5.7 5.3 9.5 0 .1.1.3.1.4 0 .9-.8 1.7-1.7 1.7h-7.8v-3.7c-.1-3.3 1.6-6.2 4.1-7.9z"/><path id="C" d="M315.5 79.8a8.71 8.71 0 0 1-8.7-8.7c0-.3 0-.6.1-.9V70c1.4-9.2 9.4-16.2 18.8-16.2s17.4 7 18.8 16.2v.2c0 .3.1.7.1 1a8.71 8.71 0 0 1-8.7 8.7h-20.4v-.1z"/><path id="D" d="M333.4 131.7c.6 0 1.2-.5 1.2-1.2v-.1c-.6-4.3-4.3-7.5-8.7-7.5s-8.1 3.3-8.7 7.5v.1c0 .6.5 1.2 1.2 1.2h15z"/></defs></svg>