<svg xmlns="http://www.w3.org/2000/svg" viewBox="0 0 366.8 366.8"><g fill="#b36f0f"><path d="M205.8 279.7c-.4-1.8-2-3.1-3.8-3.1h-5.5c-2.2 0-3.9 1.8-3.9 3.9 0 2.2 1.8 3.9 3.9 3.9h1.6v7c0 2.2 1.8 3.9 3.9 3.9 2.2 0 3.9-1.8 3.9-3.9v-10.9c0-.2-.1-.5-.1-.8z"/><path d="M197.9 279.7c-.4-1.8-2-3.1-3.8-3.1h-5.5c-2.2 0-3.9 1.8-3.9 3.9 0 2.2 1.8 3.9 3.9 3.9h1.6v7c0 2.2 1.8 3.9 3.9 3.9s3.9-1.8 3.9-3.9v-10.9c0-.2 0-.5-.1-.8z"/><path d="M190.1 279.7c-.4-1.8-1.9-3.1-3.8-3.1h-5.5c-2.2 0-3.9 1.8-3.9 3.9 0 2.2 1.8 3.9 3.9 3.9h1.6v7c0 2.2 1.8 3.9 3.9 3.9 2.2 0 3.9-1.8 3.9-3.9v-10.9c0-.2 0-.5-.1-.8z"/></g><g fill="#0075c9"><path d="M183.5 217.6c-19.8 0-35.8-16-35.8-35.8s16-35.8 35.8-35.8h102.7c0 39.5-32 71.5-71.5 71.5l-31.2.1z"/><path d="M77.2,340c71.6,0,129.7-58.1,129.7-129.7V26.7c-71.6,0-129.7,58.1-129.7,129.7"/><path d="M77.2,340H0l77.2-77.1V156.4c0-71.6,58.1-129.7,129.7-129.7v183.6C206.8,282,148.8,340,77.2,340"/></g><path d="M140.6 106.7c0 24.5 13.3 45.9 33.2 57.4v48.2a57.24 57.24 0 0 0 23.7 46.5c6.3-15.1 9.4-30.8 9.4-48.4V40.5c-36.7 0-66.3 29.6-66.3 66.2z" fill="#fff"/><path d="M112 223.3c19.8 0 35.8-16.9 35.8-37.8s-16-37.8-35.8-37.8H9.3c0 41.8 32 75.6 71.5 75.7l31.2-.1z" fill="#686868"/><path d="M107.1 219.1c19.8 0 35.8-16 35.8-35.8s-16-35.8-35.8-35.8H4.4c0 39.5 32 71.5 71.5 71.5l31.2.1z" fill="#0075c9"/><circle cx="176.9" cy="81.6" r="8.3" fill="#333e48"/><path d="M366.8 106.7c0-44.2-35.8-80-80-80h-80v80h160z" fill="#ed9900"/><path d="M343.6 50.4c-17 9.5-28.4 27.7-28.4 48.6 0 2.6.2 5.2.5 7.7h51c.1-21.9-8.8-41.8-23.1-56.3z" fill="#333e48"/><path d="M206.8,106.7h160v13.4h-160V106.7z" fill="#b36f0f"/><g fill="#ffb648"><path d="M190.1 279.7c-.4-1.8-2-3.1-3.8-3.1h-5.5c-2.2 0-3.9 1.8-3.9 3.9 0 2.2 1.8 3.9 3.9 3.9h1.6v7c0 2.2 1.8 3.9 3.9 3.9 2.2 0 3.9-1.8 3.9-3.9v-10.9c0-.2 0-.5-.1-.8z"/><path d="M182.3 279.7c-.4-1.8-1.9-3.1-3.8-3.1H173c-2.2 0-3.9 1.8-3.9 3.9 0 2.2 1.8 3.9 3.9 3.9h1.6v7c0 2.2 1.8 3.9 3.9 3.9 2.2 0 3.9-1.8 3.9-3.9v-10.9c-.1-.2-.1-.5-.1-.8z"/><path d="M174.4 279.7c-.4-1.8-1.9-3.1-3.8-3.1h-5.5c-2.2 0-3.9 1.8-3.9 3.9 0 2.2 1.8 3.9 3.9 3.9h1.6v7c0 2.2 1.8 3.9 3.9 3.9s3.9-1.8 3.9-3.9v-10.9c0-.2 0-.5-.1-.8z"/></g></svg>