<svg xmlns="http://www.w3.org/2000/svg" xmlns:xlink="http://www.w3.org/1999/xlink" viewBox="0 0 374.428 374.428"><path d="M268.538 309.56c-31.518 0-57.07-25.55-57.07-57.07V188.1c0-15.76 12.775-28.535 28.534-28.535s28.535 12.775 28.535 28.535v121.46z" fill="#826940"/><path d="M258.273 330.32a10.27 10.27 0 0 0 10.266-10.266V290.38c0-2.835-2.3-5.132-5.133-5.132s-5.133 2.297-5.133 5.132v39.94zm-13.678 0a10.27 10.27 0 0 0 10.266-10.266V290.38c0-2.835-2.298-5.132-5.132-5.132s-5.134 2.297-5.134 5.132v39.94zm-13.68 0a10.27 10.27 0 0 0 10.267-10.266V290.38c0-2.835-2.298-5.132-5.132-5.132s-5.135 2.297-5.135 5.132v39.94z" fill="#bfab6c"/><path d="M151.468 309.56c-31.52 0-57.07-25.55-57.07-57.07V188.1c0-15.76 12.775-28.535 28.534-28.535s28.535 12.775 28.535 28.535v121.46z" fill="#826940"/><path d="M141.203 330.32a10.27 10.27 0 0 0 10.266-10.266V290.38c0-2.835-2.298-5.132-5.132-5.132s-5.133 2.297-5.133 5.132l-.001 39.94zm-13.678 0a10.27 10.27 0 0 0 10.266-10.266V290.38c0-2.835-2.298-5.132-5.133-5.132s-5.133 2.297-5.133 5.132v39.94zm-13.678 0a10.27 10.27 0 0 0 10.267-10.266V290.38c0-2.835-2.3-5.132-5.133-5.132s-5.134 2.297-5.134 5.132v39.94z" fill="#bfab6c"/><path d="M359.35 204.34H0v46.27h288.383l41.658 41.66c1.645 1.645 3.8 2.466 5.956 2.466s4.3-.822 5.955-2.466a8.42 8.42 0 0 0 0-11.91l-29.748-29.75h47.145v-46.27z" fill="#65513c"/><path d="M329.385 267.793c-12.44 12.44-12.44 32.605 0 45.043s32.603 12.44 45.043 0l-45.043-45.043z" fill="#05ce7c"/><path d="M267.364 75.017H38.604c-7.417 0-13.43 6.012-13.43 13.43 0 6.667 4.864 12.184 11.233 13.234a64.35 64.35 0 0 0-12.355 37.999c0 19.143 8.325 36.337 21.544 48.176l-.006.246v121.46c31.518 0 57.07-25.55 57.07-57.07v-48.15h60v105.22c31.52 0 57.07-25.55 57.07-57.07v-48.15h47.637c35.712 0 64.662-28.95 64.662-64.663s-28.95-64.662-64.663-64.662z" fill="#9c7f4d"/><g fill="#fadf8d"><use xlink:href="#A"/><use xlink:href="#B"/><path d="M200.28 330.32a10.27 10.27 0 0 1-10.266-10.266V290.38c0-2.835 2.298-5.132 5.132-5.132s5.134 2.297 5.134 5.132v39.94z"/><use xlink:href="#A" x="-117.069"/><use xlink:href="#B" x="-117.069"/><path d="M83.2 330.32a10.27 10.27 0 0 1-10.267-10.266V290.38c0-2.835 2.3-5.132 5.133-5.132s5.133 2.297 5.133 5.132l.001 39.94z"/></g><circle cx="267.364" cy="124.225" r="80.117" fill="#967a4a"/><path d="M317.685 115.526c0-27.8-22.53-50.32-50.32-50.32s-50.32 22.53-50.32 50.32a50.15 50.15 0 0 0 4.148 20.017l-.003.008.082.167a50.2 50.2 0 0 0 2.067 4.179l11.15 22.538c5.83 12.3 18.357 20.8 32.875 20.8s27.044-8.5 32.875-20.8v.002l11.153-22.55a50.24 50.24 0 0 0 2.052-4.148l.094-.188-.004-.01c2.662-6.135 4.148-12.9 4.148-20.016z" fill="#9c7f4d"/><path d="M246.08 112.795A20.78 20.78 0 0 0 220.5 98.34l-31.4 8.722a80.4 80.4 0 0 0-1.862 17.163c0 8.857 1.46 17.37 4.113 25.334l40.26-11.186c11.056-3.07 17.527-14.523 14.458-25.578z" fill="#333e48"/><circle cx="228.523" cy="115.856" r="7.673" fill="#5c6670"/><path d="M288.65 112.795a20.78 20.78 0 0 1 25.578-14.455l31.4 8.722a80.27 80.27 0 0 1 1.863 17.163 80.01 80.01 0 0 1-4.112 25.334l-40.263-11.186c-11.053-3.07-17.526-14.523-14.456-25.578z" fill="#333e48"/><circle cx="306.206" cy="115.856" r="7.673" fill="#5c6670"/><path d="M274.66 146.773c-3.4 3.54-9.097 3.64-12.632.225l-3.944-3.808c-3.537-3.414-2.407-6.207 2.508-6.207h14.574c4.915 0 6.145 2.895 2.732 6.433l-3.238 3.357z" fill="#333e48"/><defs><path id="A" d="M172.924 330.32a10.27 10.27 0 0 1-10.266-10.266V290.38c0-2.835 2.298-5.132 5.132-5.132s5.133 2.297 5.133 5.132l.001 39.94z"/><path id="B" d="M186.602 330.32a10.27 10.27 0 0 1-10.266-10.266V290.38c0-2.835 2.298-5.132 5.133-5.132s5.133 2.297 5.133 5.132v39.94z"/></defs></svg>