<svg xmlns="http://www.w3.org/2000/svg" viewBox="0 0 366 366"><path d="M54.3 227.2c-30 0-54.3-24.4-54.3-54.3s24.4-54.3 54.3-54.3c18.1 0 32.8-14.7 32.8-32.8S72.4 53 54.3 53c-6 0-10.8-4.8-10.8-10.8s4.8-10.8 10.8-10.8c30 0 54.3 24.4 54.3 54.3S84.2 140 54.3 140c-18.1 0-32.8 14.7-32.8 32.8s14.7 32.8 32.8 32.8c6 0 10.8 4.8 10.8 10.8 0 5.9-4.8 10.8-10.8 10.8z" fill="#967a4a"/><path d="M304.7 230.4c-13 0-23.6 10.6-23.6 23.6v64.8c0 8.7 7.1 15.7 15.7 15.7h62a7.13 7.13 0 0 0 7.1-7.1v-8.6c0-8.7-7.1-15.7-15.7-15.7h-21.9V254c0-13.1-10.5-23.6-23.6-23.6z" fill="#826a40"/><path d="M110 155.1c-48.1 0-87 39-87 87s39 87 87 87v.5h133.2c39.1 0 70.7-31.7 70.7-70.7V155.1H110z" fill="#967a4a"/><path d="M201.8 155.1h-35.1v51.2c0 9.7 7.9 17.5 17.5 17.5 9.7 0 17.5-7.9 17.5-17.5l.1-51.2zm-61 0h-35.1v51.2c0 9.7 7.8 17.5 17.5 17.5s17.5-7.9 17.5-17.5l.1-51.2z" fill="#65513c"/><path d="M101.4 213.9c-33.3 0-60.3 27-60.3 60.3s27 60.3 60.3 60.3h68a7.13 7.13 0 0 0 7.1-7.1v-8.6c0-8.7-7.1-15.7-15.7-15.7h-6.4c4.8-8.8 7.3-18.8 7.3-28.8 0-33.4-27-60.4-60.3-60.4zm123.8 16.5c-13 0-23.6 10.6-23.6 23.6v64.8c0 8.7 7.1 15.7 15.7 15.7h62a7.13 7.13 0 0 0 7.1-7.1v-8.6c0-8.7-7.1-15.7-15.7-15.7h-21.9V254c0-13.1-10.5-23.6-23.6-23.6z" fill="#ad8d56"/><path d="M193.6 84.4v59.8c0 47.6 38.6 92 86.2 92s86.2-44.4 86.2-92V44.9a8.24 8.24 0 0 0-8.2-8.2 8.21 8.21 0 0 0-5.6 2.2l-31.3 31.3a73.94 73.94 0 0 0-41-12.4c-14.6 0-28.9 4.3-41 12.4l-31.3-31.3c-1.5-1.4-3.4-2.2-5.6-2.2a8.24 8.24 0 0 0-8.2 8.2l-.2 39.5z" fill="#967a4a"/><path d="M262.7 142.3a18.78 18.78 0 1 0 0 37.6c7.6 0 14.1-4.5 17.1-11 3 6.5 9.5 11 17.1 11a18.78 18.78 0 1 0 0-37.6h-34.2z" fill="#fff"/><g fill="#333e48"><circle cx="329.4" cy="125.8" r="8.6"/><circle cx="230.2" cy="125.8" r="8.6"/><path d="M269.1 154.8l-5.1-5.3c-5.4-5.6-3.5-10.2 4.3-10.2h23c7.8 0 9.6 4.4 4 9.8l-6.2 6c-5.6 5.5-14.6 5.3-20-.3z"/></g><path d="M338.2 171.8l-33.9-7.9m24.2 24.3l-28-16.8m40.2-17l-34.3 1.3m-85 16.1l33.9-7.9m-24.2 24.3l28-16.8m-40.2-17l34.3 1.3" fill="none" stroke="#333e48" stroke-width="3" stroke-linecap="round" stroke-linejoin="round" stroke-miterlimit="10"/><path d="M262.3 59.9v24.2c0 9.7 7.9 17.5 17.5 17.5 9.7 0 17.5-7.9 17.5-17.5V59.9c-5.6-1.4-11.5-2.1-17.5-2.1-6.1 0-11.9.7-17.5 2.1z" fill="#65513c"/></svg>