<svg xmlns="http://www.w3.org/2000/svg" xmlns:xlink="http://www.w3.org/1999/xlink" viewBox="0 0 512 512"><path d="M57 376.8c-31.5 0-57-23.6-57-23.6s25.5-23.6 57-23.6C25.5 329.6 0 306 0 306c4.7-4.2 10-8 15.2-11.7 9.3-6.5 19.4-11.2 30.8-12.2.9-.1 11.1-.3 11.1.2-4.8-.7-9.8-2.2-14.3-3.9a47.59 47.59 0 0 1-9.9-5.4c-10.6-7.7-18.2-19.1-22.2-31.5-.4-1.2-.5-1.9-.5-1.9 12.5-8.4 28.4-12.2 43.2-9.6 6.3 1.1 12.4 3.4 18.2 6.8l.1-.1c-5.4-4-9.9-8.8-13.3-14.1-6.2-9.5-9.1-21-9.1-32.4 0-1 .2-11 1.1-11.2 15.1-1.8 30.6 1.4 43 10.5 5.9 4.3 11.1 10 15 16.8.1.1.1.2.2.3 0-.1-.1-.2-.2-.3-4-6.8-6.4-14.1-7.3-21.4-1.3-10.7 1.4-20.4 4.6-30.5 1.3-4 2.8-9.2 6.7-11.6 1.9-1.2 5.5 1.3 7.4 2.2 11.5 5.3 21.4 14.5 27.3 25.7 3.4 6.5 5.5 13.9 6 21.8v.2-.2c-.3-4.2-.2-8.5.5-12.7 2.1-14 9.9-27 18.1-38.3l5.1-6.4s23.6 25.5 23.6 57v.5-.5c0-31.5 23.6-57 23.6-57s23.6 25.5 23.6 57v.5-.5c0-31.5 23.6-57 23.6-57s23.6 25.5 23.6 57v.5-.5c0-31.5 23.6-57 23.6-57s23.6 25.5 23.6 57v.5-.5c0-20.2 9.2-44.9 27.6-55.3l1.8-1c12 9.7 20.5 24.7 21.1 40.2.4 7.4-1 14.9-4 22.2l-1.2 2.7h.1c.3-.9.7-1.9 1.1-2.8 2.3-5.6 5.4-10.8 9.5-15.1 7.2-7.7 16-13 26.2-15.7 2.3-.6 19.2-4.7 20.2-1.7 2.3 7.2 3 14.9 2.8 22.4-.7 20.7-17 37.7-34.6 46.3v142.2l-355.6.3z" fill="#65513c"/><path d="M123.8 271.3c-2.3 0-4.6-.9-6.3-2.7-3.2-3.5-3-8.9.5-12.1l21.7-20.1c3.5-3.2 8.9-3 12.1.5s3 8.9-.5 12.1l-21.7 20c-1.6 1.5-3.7 2.3-5.8 2.3zm99.8 50.2c-2.4 0-4.7-1-6.4-2.8l-22.9-25.3c-3.2-3.5-2.9-9 .6-12.1 3.5-3.2 9-2.9 12.1.6l22.9 25.3c3.2 3.5 2.9 9-.6 12.1-1.5 1.4-3.6 2.2-5.7 2.2zm57.7-80.8c-2.8 0-5.5-1.3-7.1-3.8-2.6-3.9-1.6-9.3 2.3-11.9l21.9-14.7c4-2.6 9.3-1.5 11.9 2.4s1.6 9.2-2.3 11.8l-21.9 14.7c-1.5 1.1-3.2 1.5-4.8 1.5zm-57.7 15.9a8.76 8.76 0 0 1-6.9-3.4L199.1 230a8.5 8.5 0 0 1 13.7-10.3l17.6 23.3a8.5 8.5 0 0 1-1.7 12c-1.4 1-3.2 1.6-5.1 1.6zm119.5-18.2a8.66 8.66 0 0 1-5.4-1.9c-3.7-3-4.3-8.4-1.3-12.1l16-20c3-3.7 8.4-4.3 12.1-1.3s4.3 8.4 1.3 12.1l-16 20c-1.7 2.1-4.2 3.2-6.7 3.2zm-230.3 75.1c-2 0-4-.7-5.7-2.1L85 292c-3.6-3.1-3.9-8.6-.8-12.1 3.1-3.6 8.6-3.9 12.1-.8l22.1 19.4c3.6 3.1 3.9 8.6.8 12.1-1.6 1.9-4 2.9-6.4 2.9z" fill="#9c7f4d"/><path d="M475.7 297.7l-63.2-63.2c-78.6 0-142.4 63.7-142.4 142.4h177.1c24.7 0 44.7-20 44.7-44.7.1-13.9-6.2-26.3-16.2-34.5z" fill="#bf9b5f"/><g fill="#333e48"><circle cx="420.8" cy="289.9" r="12"/><ellipse cx="490.8" cy="321.5" rx="21.2" ry="15.8"/></g><g fill="#9c7f4d"><use xlink:href="#B"/><use xlink:href="#B" x="-148"/></g><defs ><path id="B" d="M299.8 327.9h-22.7c-11.1 0-20.1 9-20.1 20.1v14.4c0 7.9 6.5 14.4 14.4 14.4h77.2c.1-27-21.8-48.9-48.8-48.9z"/></defs></svg>