<svg xmlns="http://www.w3.org/2000/svg" viewBox="0 0 380.9 380.9"><path d="M193.6 368.1a10.97 10.97 0 0 0 11 11h55.2a6.7 6.7 0 0 0 6.7-6.7c0-12.9-10.5-23.4-23.4-23.4h-18.6V245.3c0-32.9-26.7-59.5-59.5-59.5s-59.5 26.7-59.5 59.5 26.7 59.5 59.5 59.5c15.8 0 28.6 12.8 28.6 28.6v34.7zm146-151.4h-42.2v-32.4c0-8.5-6.9-15.5-15.5-15.5-8.5 0-15.5 6.9-15.5 15.5v47.8c0 8.5 6.9 15.5 15.5 15.5h57.6c8.5 0 15.5-6.9 15.5-15.5.1-8.5-6.8-15.4-15.4-15.4z" fill="#65513c"/><g fill="#bf9b5f"><path d="M380.9 52.5a14.77 14.77 0 0 0-14.8-14.8H261.5c-14.5 0-26.3 11.8-26.3 26.3v53.9c0 12.8-10.4 23.1-23.1 23.1h-30.9c-41.8 0-75.7 33.9-75.7 75.7v95.1c0 18.3-14.9 33.2-33.2 33.2H17c-8.9 0-16.2 6.8-17 15.6-.9 10.1 7.3 18.5 17.5 18.5h95.7c20.6 0 37.2-16.7 37.2-37.2V286c0-.1.1-.1.1-.1 9.3 4.1 19.7 6.4 30.5 6.4h33c45.9 0 83.1-37.2 83.1-83.1v-68.1c0-16.3 13.2-29.5 29.5-29.5l-.1-.2c30.5-2.6 54.4-27.9 54.4-58.9z"/><path d="M278.3 29.1c0-14.5-12.7-26.4-13.6-27.3h-.1c-1 .9-13.6 12.8-13.6 27.3s12.7 26.4 13.6 27.3h.1c.9-.8 13.6-12.7 13.6-27.3z"/></g><path d="M272.8 29.1c0-9.1-8.2-16.4-8.2-16.4s-8.2 7.3-8.2 16.4 8.2 16.4 8.2 16.4 8.2-7.3 8.2-16.4z" fill="#e1cb81"/><path d="M315.2 60.4a7.17 7.17 0 1 0-14.4 0 7.17 7.17 0 1 0 14.4 0z" fill="#333e48"/><path d="M172.4 368.1a10.97 10.97 0 0 0 11 11h55.2a6.7 6.7 0 0 0 6.7-6.7c0-12.9-10.5-23.4-23.4-23.4h-18.6V245.3c0-32.9-26.7-59.5-59.5-59.5s-59.5 26.7-59.5 59.5 26.7 59.5 59.5 59.5c15.8 0 28.6 12.8 28.6 28.6v34.7zm146-151.4h-42.2v-32.4c0-8.5-6.9-15.5-15.5-15.5-8.5 0-15.5 6.9-15.5 15.5v47.8c0 8.5 6.9 15.5 15.5 15.5h57.6c8.5 0 15.5-6.9 15.5-15.5a15.41 15.41 0 0 0-15.4-15.4z" fill="#9c7f4d"/></svg>