<svg xmlns="http://www.w3.org/2000/svg" viewBox="0 0 398.276 398.276"><path d="M206.706 166.047v58.977c-.001 0 19.584 19.587 19.584 19.587v.002L169.694 301.2a8.76 8.76 0 0 0 0 12.384l31.137 31.136a5.37 5.37 0 0 0 7.595 0c7.3-7.3 7.3-19.114 0-26.403l-11.898-11.898 51.878-39.702c10.674-10.673 17.276-25.417 17.276-41.704.001-32.573-26.403-58.976-58.976-58.976zm-89.014 171.86h-17.34l-8.62-64.506c16.863-23.82 28.623-51.503 33.715-81.457h-65v81.207L78.2 341.92v11.27a8.76 8.76 0 0 0 8.757 8.757h44.034a5.37 5.37 0 0 0 5.371-5.37c0-10.312-8.36-18.673-18.67-18.673z" fill="#967a4a"/><path d="M375.26 61.126h-17.058c-5.418-12.646-17.972-21.5-32.6-21.5-19.582 0-35.454 15.875-35.454 35.454v16.482c0 15.997-9.648 29.734-23.44 35.73-.792-1.93-1.724-3.895-2.823-5.887L227.9 56.145c-14.568-26.43-38.412-26.43-52.98 0l-20.73 37.6-20.73-37.6c-14.57-26.43-38.412-26.43-52.983 0l-35.972 65.25c-1.492 2.707-2.683 5.36-3.6 7.948a56.95 56.95 0 0 0-8.87 14.31C13.187 152.018 0 170.9 0 192.818v36.816a6.04 6.04 0 0 0 6.036 6.037 6.04 6.04 0 0 0 6.036-6.037v-36.816c0-13.15 6.123-24.887 15.66-32.536a57.64 57.64 0 0 0-.302 5.789v25.873L20.3 273.15l8.78 68.77v11.27a8.76 8.76 0 0 0 8.757 8.757H81.87a5.37 5.37 0 0 0 5.37-5.37c0-10.312-8.36-18.672-18.67-18.672H51.234l.345-64.506c9.646-13.628 19.952-28.52 27.96-44.378a128.81 128.81 0 0 0 63.773 16.805 128.85 128.85 0 0 0 70.87-21.124h3.628l.127 128.5a8.76 8.76 0 0 0 8.757 8.757h44.035a5.37 5.37 0 0 0 5.37-5.37c0-10.312-8.36-18.672-18.67-18.672H240.6l8.575-64.482.66-.01c13.33-19.455 23.287-41.384 29.063-64.93 45.034-16.58 79.792-54.406 92.115-101.33h4.246c12.712 0 23.017-10.305 23.017-23.016a23.02 23.02 0 0 0-23.015-23.016z" fill="#bf9b5f"/><g fill="#333e48"><path d="M384.533 74.52a5.12 5.12 0 1 0-10.24.001h10.24z"/><circle cx="335.908" cy="61.126" r="4.938"/></g><path d="M285.068 45.76c-2.728 2.48-2.93 6.7-.45 9.428l8.13 8.945c2.477 2.73 6.698 2.93 9.427.453s2.93-6.7.45-9.428l-8.13-8.946a6.68 6.68 0 0 0-9.428-.452z" fill="#bf9b5f"/><path d="M288.857 49.93c-1.093.993-1.174 2.685-.18 3.777l5.87 6.46c.992 1.093 2.684 1.174 3.777.18s1.174-2.685.182-3.777l-5.87-6.462c-.993-1.092-2.685-1.174-3.778-.18z" fill="#967a4a"/></svg>