<svg xmlns="http://www.w3.org/2000/svg" viewBox="0 0 444.493 444.493"><path d="M5.503 204.47a3.65 3.65 0 0 1-3.647-3.647c0-22.126 18-40.125 40.125-40.125a3.65 3.65 0 0 1 3.648 3.647 3.65 3.65 0 0 1-3.648 3.647c-18.102 0-32.83 14.728-32.83 32.83a3.65 3.65 0 0 1-3.649 3.648z" fill="#5c6670"/><path d="M10.918 200.823l-1.246 6.904c-.415 2.302-2.62 3.832-4.92 3.416a4.25 4.25 0 0 1-3.417-3.416L.1 200.823c-.54-3 1.447-5.853 4.438-6.392s5.852 1.447 6.392 4.438c.118.658.1 1.33 0 1.954zm132.968 125.3V241.21H80.66v94.575a11.12 11.12 0 0 0 11.116 11.117h55.758a5.06 5.06 0 0 0 5.059-5.059c0-6.626-3.483-12.425-8.706-15.7z" fill="#454d54"/><path d="M148.7 330.515c-4.566 3.492-7.525 8.98-7.525 15.172 0 .4.036.812.062 1.216h6.285a5.06 5.06 0 0 0 5.059-5.059c0-4.27-1.457-8.2-3.88-11.33z" fill="#a4a9ad"/><path d="M300.364 326.134v-84.922h-63.227v94.575a11.12 11.12 0 0 0 11.117 11.117h55.757a5.06 5.06 0 0 0 5.059-5.059c0-6.626-3.482-12.425-8.706-15.7z" fill="#454d54"/><path d="M305.2 330.515c-4.566 3.492-7.525 8.98-7.525 15.172 0 .4.036.812.06 1.216h6.285a5.06 5.06 0 0 0 5.059-5.059c0-4.27-1.457-8.2-3.88-11.33z" fill="#a4a9ad"/><path d="M240.122 121.27H100.076c-40.144 0-72.687 32.542-72.687 72.687v39.787c0 17.626 9.784 32.966 24.215 40.894v61.15a11.12 11.12 0 0 0 11.117 11.117h55.757a5.06 5.06 0 0 0 5.059-5.059c0-6.626-3.482-12.425-8.706-15.7v-45.76h93.25v55.412a11.12 11.12 0 0 0 11.117 11.117h55.757a5.06 5.06 0 0 0 5.059-5.059c0-6.626-3.482-12.425-8.706-15.7V280.1c23.34-2.556 41.5-22.326 41.5-46.344V193.96c0-40.147-32.543-72.7-72.687-72.7z" fill="#5c6670"/><path d="M119.657 330.515c-4.567 3.492-7.525 8.98-7.525 15.172 0 .4.036.812.062 1.216h6.285a5.06 5.06 0 0 0 5.059-5.059c-.002-4.27-1.458-8.2-3.88-11.33zm156.478 0c-4.567 3.492-7.525 8.98-7.525 15.172 0 .4.036.812.06 1.216h6.285a5.06 5.06 0 0 0 5.059-5.059c0-4.27-1.457-8.2-3.88-11.33z" fill="#a4a9ad"/><path d="M259.657 97.6c-16.8 0-31.934 7.108-42.584 18.47H100.076c-42.953 0-77.898 34.944-77.898 77.897v17.038a17.04 17.04 0 0 0 17.038 17.038h261.767a17.05 17.05 0 0 0 17.038-17.038v-3.192h.01V155.96c-.001-32.237-26.135-58.37-58.373-58.37z" fill="#566069"/><g fill="#454d54"><circle cx="77.659" cy="158.092" r="6.253"/><circle cx="143.889" cy="138.244" r="6.253"/><circle cx="201.829" cy="158.092" r="6.253"/></g><path d="M396.568 155.05l.001-.003-48.07-41.114a52.06 52.06 0 0 0-4.288-3.668l-.092-.08-.003.005c-8.667-6.588-19.475-10.504-31.2-10.504-28.504 0-51.614 23.108-51.614 51.615v38.56l.032.03c.672 21.4 18.212 38.53 39.768 38.53h68.742c22.952 0 41.557-18.605 41.556-41.557.001-12.77-5.765-24.2-14.83-31.814z" fill="#5c6670"/><path d="M441.74 157.508l-2.354 2.897-.78.956-1.33 1.296-3.086 2.898c-.572.548-1.102.93-1.67 1.4l-1.74 1.368-1.824 1.4c-.625.468-1.303.864-1.968 1.305l-4.137 2.558-4.377 2.2-1.095.534-1.117.442-2.2.855-4.264 1.473-3.928 1.064c-1.225.358-2.362.53-3.376.703l-2.636.435-2.316.357-.185.03c-10.1 1.556-19.53-5.36-21.086-15.45s5.36-19.53 15.45-21.086c1.956-.302 3.967-.268 5.822.03l1.117.184 1.304.235c.508.096 1.092.235 1.714.238l2.057.15c.752.112 1.508.01 2.322-.002l1.248-.034.646-.01.632-.094 2.63-.354c.88-.16 1.73-.422 2.612-.616.432-.113.888-.182 1.302-.327l1.227-.443 1.2-.425c.386-.138.84-.27 1.1-.405.603-.266 1.196-.508 1.762-.73l.825-.315 2.68-1.78 1.447-.963c5.66-3.767 13.303-2.232 17.07 3.428 3.06 4.6 2.6 10.514-.696 14.6zm-76.06-12.326c-5.468 0-9.9-4.434-9.9-9.9s4.433-9.9 9.9-9.9c7.573 0 14.967-2.076 21.383-6.003 4.662-2.853 10.758-1.388 13.613 3.278a9.9 9.9 0 0 1-3.277 13.612c-9.528 5.832-20.497 8.915-31.72 8.915z" fill="#fbe298"/><circle cx="328.285" cy="155.961" r="7.137" fill="#333e48"/><path d="M258.528 135.282c0 8.922 7.233 16.154 16.154 16.154s16.154-7.233 16.154-16.154h-32.308z" fill="#a4a9ad"/></svg>