<svg xmlns="http://www.w3.org/2000/svg" viewBox="0 0 374.9 374.9"><path d="M264 288.9h-6.8V54H156.8c13.2 8.5 22 23.4 22 40.3v194.6c0 21.6 17.5 39.2 39.2 39.2h46c10.8 0 19.6-8.8 19.6-19.6s-8.8-19.6-19.6-19.6zm-153.3 0h-6.8V91c0-14.8 6.8-28.1 17.4-36.9-5.9.3-11.7 1.2-17.4 2.5-44.9 10.5-78.3 50.8-78.3 98.9v133.3c0 21.6 17.5 39.2 39.2 39.2h46c10.8 0 19.6-8.8 19.6-19.6s-8.9-19.5-19.7-19.5z" fill="#4d555b"/><circle cx="22.1" cy="80.5" r="22.1" fill="#5c6670"/><path d="M287 54H101.6C45.5 54 0 99.5 0 155.6s45.5 101.6 101.6 101.6h81.7c26.9 0 51.3-10.5 69.5-27.5H287c48.5 0 87.9-39.3 87.9-87.9S335.5 54 287 54z" fill="#dadbdc"/><path d="M238.5 288.9h-6.8V94.3c0-16.9 8.8-31.8 22-40.3H131.3c13.2 8.5 22 23.4 22 40.3v194.6c0 21.6 17.5 39.2 39.2 39.2h46c10.8 0 19.6-8.8 19.6-19.6s-8.8-19.6-19.6-19.6zm-153.3 0h-6.8V91c0-14.8 6.8-28.1 17.4-36.9-5.9.3-11.7 1.2-17.4 2.5-45 10.6-78.4 50.9-78.4 99v133.3c0 21.6 17.5 39.2 39.2 39.2h46c10.8 0 19.6-8.8 19.6-19.6s-8.8-19.6-19.6-19.6zm252.3-188c-6.6-6.6-17.4-6.6-24 0l-18.9 18.9c-6.6 6.6-6.6 17.4 0 24s17.4 6.6 24 0l18.9-18.9c6.7-6.6 6.7-17.4 0-24z" fill="#5c6670"/><circle cx="325.5" cy="112.9" r="7.6" fill="#2d3740"/><path d="M268.1 94.6c-4 0-7.7-1.5-10.5-4.3-.4-.4-.8-.8-1.1-1.3l-.2-.4c-3.7-5-5.5-11.2-5.1-17.4.4-6.3 3.1-12.3 7.6-16.7 4.5-4.5 10.4-7.2 16.7-7.6.6 0 1.2-.1 1.8-.1 5.6 0 11.2 1.8 15.6 5.2l.3.3c.4.4.9.7 1.3 1.1 2.8 2.8 4.3 6.5 4.3 10.4s-1.5 7.7-4.3 10.5l-16 16c-2.7 2.8-6.4 4.3-10.4 4.3z" fill="#5c6670"/><path d="M272.1 83.8c-2.2 2.2-5.8 2.2-8 0-.2-.2-.3-.3-.4-.5v-.2c-2.4-3.3-3.6-7.3-3.3-11.4s2.1-8 5-10.9 6.8-4.7 10.9-5 8.1.9 11.4 3.3c.2.1.3.3.5.4 2.2 2.2 2.2 5.8 0 8l-16.1 16.3z" fill="#4d555b"/><path d="M374.9 133.8a3.01 3.01 0 0 0-3-3l-5.2.1c-5.5 0-6.7 3.1-2.8 6.9l4.4 4.2a9.25 9.25 0 0 0 6.5 2.7l.1-10.9z" fill="#5c6670"/></svg>