<svg xmlns="http://www.w3.org/2000/svg" viewBox="0 0 427.988 427.988"><style><![CDATA[.E{opacity:.3}.F{fill:#222}.G{fill:#218649}.H{fill:#95d600}]]></style><path d="M368.578 162.5H86.342c-14.695 0-26.6 11.914-26.6 26.612 0 4.284 1.02 8.328 2.818 11.913 7.504 15.9 38.953 53.135 55.873 66.726.377.3.77.604 1.154.906.072.057.148.12.223.174 10.06 7.82 22.7 12.5 36.42 12.5h212.36c32.8 0 59.4-26.6 59.4-59.4s-26.6-59.412-59.4-59.412z" fill="#77bc1f"/><path d="M86.342 162.5c-14.695 0-26.6 11.914-26.6 26.612 0 4.284 1.02 8.328 2.818 11.913 7.504 15.9 38.953 53.135 55.873 66.726.377.3.77.604 1.154.906.072.057.148.12.223.174 10.06 7.82 22.7 12.5 36.42 12.5h91.484V162.5H86.342z" class="E F"/><path d="M10.887 162.215c1.875 29.537 26.4 52.917 56.422 52.917h212.85c29.06 0 52.617-23.56 52.617-52.62l-321.9-.298z" class="G"/><g class="F"><path d="M10.887 162.215c1.875 29.537 26.4 52.917 56.422 52.917h180.395v-52.768l-236.817-.15z" opacity=".2"/><path d="M182.576 225.636l-63.318-63.32-73.137-.067.367 9.07a32.51 32.51 0 0 0 9.414 19.967l80.512 80.514a32.52 32.52 0 0 0 21.537 9.524h3.094a32.53 32.53 0 0 0 21.53-9.522c12.748-12.75 12.752-33.417.002-46.165z" class="E"/></g><path d="M48.7 320.305a14.76 14.76 0 0 1-1.947-.13c-7.945-1.065-13.523-8.37-12.457-16.315L56.2 140.336a14.52 14.52 0 0 1 16.315-12.46 14.52 14.52 0 0 1 12.46 16.315L63.06 307.716c-.977 7.3-7.2 12.6-14.368 12.6z" class="H"/><path d="M72.516 127.876a14.52 14.52 0 0 0-16.315 12.46l-5.834 43.543c1.453 2.654 3.285 5.156 5.535 7.405l20.07 20.072 9.002-67.166c1.067-7.944-4.5-15.25-12.458-16.314z" class="E F"/><path d="M188.586 219.625L80.928 111.966a14.63 14.63 0 0 0-20.68-.003c-1.658 1.66-2.82 3.62-3.514 5.704l-.014.004c-3.266 9.07-5.514 35.77-4.223 47.635a32.51 32.51 0 0 0 9.414 19.969l80.514 80.514c12.746 12.747 33.414 12.747 46.158.002 12.75-12.75 12.753-33.418.003-46.166z" class="G"/><path d="M48.674 320.304H14.516A14.52 14.52 0 0 1 0 305.788a14.52 14.52 0 0 1 14.516-14.516h34.158a14.52 14.52 0 0 1 14.516 14.516 14.52 14.52 0 0 1-14.516 14.516z" class="H"/><path d="M17.004 291.273h15v29.033h-15z" class="G"/><path d="M245.93 280.34c-5.53 0-10.813-3.176-13.238-8.543l-22.984-50.884a14.52 14.52 0 0 1 7.256-19.203c7.305-3.3 15.902-.054 19.203 7.253l22.984 50.885a14.52 14.52 0 0 1-7.254 19.203c-1.94.875-3.97 1.3-5.967 1.3z" class="E F"/><path d="M250.805 275.468c-5.53 0-10.813-3.177-13.238-8.544l-22.983-50.883a14.52 14.52 0 0 1 7.254-19.204c7.305-3.3 15.902-.054 19.203 7.253l22.984 50.884a14.52 14.52 0 0 1-7.254 19.204 14.47 14.47 0 0 1-5.966 1.29z" class="H"/><path d="M259.15 259.85l-22.984-50.885c-3.3-7.307-11.898-10.553-19.203-7.253a14.25 14.25 0 0 0-1.561.833c-2.4 3.95-2.86 8.97-.818 13.497l22.983 50.883c2.426 5.367 7.707 8.544 13.238 8.544a14.48 14.48 0 0 0 5.967-1.29 14.99 14.99 0 0 0 1.561-.834 14.5 14.5 0 0 0 .817-13.495z" class="E F"/><g class="H"><path d="M208.648 320.306a14.73 14.73 0 0 1-2.867-.284 14.52 14.52 0 0 1-11.38-17.086l19.18-95.722a14.53 14.53 0 0 1 17.084-11.382 14.52 14.52 0 0 1 11.381 17.084l-19.178 95.724c-1.383 6.896-7.443 11.666-14.22 11.666z"/><path d="M208.635 320.304h-34.158a14.52 14.52 0 0 1-14.516-14.516 14.52 14.52 0 0 1 14.516-14.516h34.158a14.52 14.52 0 0 1 14.516 14.516 14.52 14.52 0 0 1-14.516 14.516z"/></g><path d="M176.965 291.273h15v29.033h-15z" class="G"/><path d="M324.8 280.34c-5.53 0-10.813-3.176-13.238-8.543L288.6 220.914c-3.3-7.307-.053-15.903 7.254-19.203s15.902-.054 19.203 7.253l22.984 50.885a14.52 14.52 0 0 1-7.254 19.203 14.48 14.48 0 0 1-5.967 1.289z" class="E F"/><path d="M329.685 275.468c-5.53 0-10.813-3.177-13.238-8.544l-22.982-50.883c-3.3-7.308-.053-15.904 7.254-19.204s15.902-.054 19.203 7.253l22.984 50.884a14.52 14.52 0 0 1-7.254 19.204 14.48 14.48 0 0 1-5.967 1.29z" class="H"/><path d="M338.03 259.85l-22.984-50.885c-3.3-7.307-11.9-10.553-19.203-7.253a14.42 14.42 0 0 0-1.56.833c-2.4 3.95-2.863 8.97-.818 13.497l22.982 50.883c2.426 5.367 7.7 8.544 13.238 8.544a14.34 14.34 0 0 0 5.967-1.3c.545-.247 1.06-.532 1.56-.834a14.47 14.47 0 0 0 .82-13.495z" class="E F"/><g class="H"><path d="M287.53 320.306a14.75 14.75 0 0 1-2.87-.284 14.52 14.52 0 0 1-11.38-17.086l19.18-95.722a14.53 14.53 0 0 1 17.084-11.382 14.52 14.52 0 0 1 11.383 17.084l-19.18 95.724c-1.383 6.896-7.443 11.666-14.217 11.666z"/><path d="M287.514 320.304h-34.156a14.52 14.52 0 0 1-14.518-14.516 14.52 14.52 0 0 1 14.518-14.516h34.156a14.52 14.52 0 0 1 14.516 14.516 14.52 14.52 0 0 1-14.516 14.516z"/></g><path d="M255.846 291.273h15v29.033h-15z" class="G"/><circle cx="396.382" cy="194.835" r="6.048" fill="#333e48"/><path d="M363.346 180.4a7.5 7.5 0 0 1-7.5-7.5c0-35.176 28.617-63.793 63.8-63.793a7.5 7.5 0 1 1 0 15c-26.904 0-48.8 21.9-48.8 48.793a7.5 7.5 0 0 1-7.5 7.5z" class="G"/></svg>
