<svg xmlns="http://www.w3.org/2000/svg" viewBox="0 0 361.8 361.8"><path d="M223.7 211.4c-6.6 0-12.7-4.4-14.6-11.1l-10.6-37.5c-2.1-7.5 1.8-15.3 9-18.2l33.7-13.5c7.7-3.2 16.6.4 19.9 8.2 3.2 7.7-.4 16.6-8.2 19.9-.1.1-.3.1-.4.2l-21 8.4 6.9 24.4c2.3 8.1-2.4 16.5-10.5 18.7-1.4.3-2.8.5-4.2.5zm-98.1 0c-6.6 0-12.7-4.4-14.6-11.1l-10.6-37.5c-2.1-7.5 1.8-15.3 9-18.2l33.7-13.5c7.7-3.2 16.6.4 19.9 8.2s-.4 16.6-8.2 19.9c-.1.1-.3.1-.4.2l-21 8.4 6.9 24.4c2.3 8.1-2.4 16.5-10.5 18.7-1.4.3-2.8.5-4.2.5z" fill="#5e8e19"/><path d="M361.8 186.1H0v38.2h258.5l34.4 34.4c1.4 1.4 3.1 2 4.9 2s3.6-.7 4.9-2c2.7-2.7 2.7-7.1 0-9.8l-24.5-24.6h83.6v-38.2z" fill="#65513c"/><path d="M305.6 62.9c-15.4-18.7-37.7-31.5-63.1-34.4-.4-.1-.9-.1-1.4-.1-5.3 0-9.6 4.3-9.6 9.6v29.5c-15.6-7.5-33.1-11.7-51.6-11.7h-32.5C81.6 55.8 28.2 109.2 28.2 175v80.7c0 42.9 34.9 77.8 77.8 77.8 35.9 0 65.2-29.2 65.2-65.2 0-30.4-24.7-55.1-55.1-55.1-25.9 0-47 21.1-47 47 0 22.3 18.2 40.5 40.5 40.5 8 0 14.6-6.5 14.6-14.6 0-8-6.5-14.6-14.6-14.6-6.3 0-11.4-5.1-11.4-11.4 0-9.8 8-17.8 17.8-17.8a25.91 25.91 0 0 1 25.9 25.9c0 19.9-16.2 36.1-36.1 36.1-26.9 0-48.7-21.9-48.7-48.7v-80.7h244.4c31 0 56.1-25.1 56.1-56.1.2-29.7-22.8-54-52-55.9z" fill="#95d600"/><g fill="#77bc1f"><path d="M201.9 211.4c-6.6 0-12.7-4.4-14.6-11.1l-10.6-37.5c-2.1-7.5 1.8-15.3 9-18.2l33.7-13.5c7.8-3.1 16.6.7 19.8 8.4 3.1 7.8-.7 16.6-8.4 19.8l-21 8.4 6.9 24.4c2.3 8.1-2.4 16.5-10.5 18.7-1.5.4-2.9.6-4.3.6zm-98.1 0c-6.6 0-12.7-4.4-14.6-11.1l-10.6-37.5c-2.1-7.5 1.8-15.3 9-18.2l33.7-13.5c7.8-3.1 16.6.7 19.7 8.4 3.1 7.8-.7 16.6-8.4 19.8l-21 8.4 6.9 24.4c2.3 8.1-2.4 16.5-10.5 18.7-1.4.4-2.8.6-4.2.6z"/><circle cx="290.9" cy="102" r="17.3"/></g><circle cx="285.5" cy="97.3" r="5" fill="#333e48"/><g fill="#5e8e19"><circle cx="116.3" cy="87.5" r="2.8"/><circle cx="123.5" cy="67.6" r="2.8"/><circle cx="85.5" cy="90.3" r="2.8"/><path d="M100.6,78.7c0-1.5-1.2-2.8-2.8-2.8s-2.8,1.2-2.8,2.8s1.2,2.8,2.8,2.8S100.6,80.3,100.6,78.7z"/><circle cx="139.3" cy="73.1" r="2.8"/><circle cx="207" cy="67.6" r="2.8"/><circle cx="200.7" cy="87.5" r="2.8"/><circle cx="147.6" cy="84.8" r="2.8"/><circle cx="163.7" cy="66.3" r="2.8"/><path d="M188.6,70.4c0-1.5-1.2-2.8-2.8-2.8s-2.8,1.2-2.8,2.8s1.2,2.8,2.8,2.8C187.3,73.1,188.6,71.9,188.6,70.4z"/><circle cx="176.1" cy="84.8" r="2.8"/></g></svg>