<svg xmlns="http://www.w3.org/2000/svg" viewBox="0 0 427.3 427.3"><path d="M380.8 187.3h-.2c-2-9.2-10.1-16-19.9-16s-17.9 6.9-19.9 16h-33c0-13.4-10.9-24.3-24.3-24.3-8.9 0-16.7 4.8-21 12-2.3-1-4.9-1.6-7.6-1.6H93.2c-39.9 0-74 25.1-87.2 60.4h421.4c-.1-25.7-20.9-46.5-46.6-46.5z" fill="#218649"/><path d="M373.2 191.6c0-6.9-5.6-12.6-12.6-12.6s-12.6 5.6-12.6 12.6h25.2z" fill="#006931"/><circle cx="283.5" cy="187.3" r="10" fill="#333e48"/><path d="M5.9 233.8A93.56 93.56 0 0 0 0 266.6h394.6c18.1 0 32.7-14.7 32.7-32.7l-421.4-.1z" fill="#95d600"/><path d="M176.9 258.4a8.71 8.71 0 0 0 8.7 8.7h84.5c-8.5-22.7-30.4-38.8-56.1-38.8h-25.2c-6.6 0-11.9 5.3-11.9 11.9v18.2zm69.8-85c0-7.2-5.9-13.1-13.1-13.1s-13.1 5.9-13.1 13.1h26.2zm-31.4 0c.1-7.2-5.8-13.2-13-13.2-7.2-.1-13.2 5.8-13.2 13v.2h26.2zm-31.4 0c0-7.2-5.9-13.1-13.1-13.1s-13.1 5.9-13.1 13.1h26.2zm-31.4 0c0-7.2-5.9-13.1-13.1-13.1s-13.1 5.9-13.1 13.1h26.2zm-31.3 0c0-7.2-5.9-13.1-13.1-13.1S95 166.2 95 173.4c-.1 0 26.2 0 26.2 0z" fill="#006931"/><path d="M165.2,266.6c0-18.1-14.7-32.7-32.7-32.7H5.9C2.1,244,0,255,0,266.6H165.2z" fill="#218649"/><path d="M132.2 233.8c0-7.2-5.9-13.1-13.1-13.1s-13.1 5.9-13.1 13.1h26.2zm-31.3 0c0-7.2-5.9-13.1-13.1-13.1s-13.1 5.9-13.1 13.1h26.2zm-31.4 0c0-7.2-5.9-13.1-13.1-13.1s-13.1 5.9-13.1 13.1h26.2zm-31.4 0c0-7.2-5.9-13.1-13.1-13.1s-13.1 5.9-13.1 13.1h26.2z" fill="#006931"/><path d="M309 233.8l-9.4 16.2-9.4-16.2H309zm22.4 0L322 250l-9.4-16.2h18.8zm22.4 0l-9.4 16.2-9.4-16.2h18.8zm22.4 0l-9.4 16.2-9.3-16.2h18.7zm22.4 0l-9.4 16.2-9.4-16.2h18.8zm22.4 0l-9.4 16.2-9.4-16.2H421z" fill="#fff"/></svg>