<svg xmlns="http://www.w3.org/2000/svg" viewBox="0 0 429.297 429.297"><path d="M421.797 91.477h-120a7.5 7.5 0 1 1 0-15h120a7.5 7.5 0 1 1 0 15z" fill="#333e48"/><g fill="#95d600"><path d="M101.688 270.356C92.07 309.7 89.373 349.93 96.302 382.67c11.995 28.14 94.57 3.46 72.427-22.143-8.303-8.535-36.443-39.212-22.605-70.12l-44.436-20.05z"/><path d="M286.05 134.58c0-11.972 22.343-25.7 22.343-44.602 0-27.7-26.73-55.84-57.57-55.84s-55.842 25-55.842 55.84c0 22.306-.316 28.558-8.416 34.508l-1.678 1.16-.27.18.003.007C140.1 157.158 104.794 233.697 95.094 305a167.68 167.68 0 0 0 24.777 1.839c91.838 0 166.287-74.45 166.287-166.288 0-2-.042-3.988-.112-5.97l.005.001z"/></g><path d="M286.05 134.58c0-6.586 6.76-13.706 12.844-21.924-10.453 12.7-36.3 8.325-44.506 33.654-7.024 21.66 16.62 32.515 22.554 48.932 5.964-17.13 9.215-35.53 9.215-54.7 0-2-.042-3.988-.112-5.97h.005z" fill="#229cd2"/><g fill="#218649"><path d="M273.813 203.527h-148.5c-9.895 20.847-17.953 43.686-23.6 66.835l-.014-.006-1.294 5.552-.828 3.737-.753 3.58-.748 3.756-.73 3.9-.584 3.32-.712 4.332-.427 2.802-.522 3.673c-3.757 27.662-3.686 54.537 1.2 77.67 11.995 28.14 94.57 3.46 72.427-22.143-6.96-7.153-27.848-29.86-26.282-55.222 59.666-8.1 109.275-47.844 131.365-101.777z" opacity=".2"/><path d="M142.45 305.305a167.52 167.52 0 0 1-22.58 1.532c-2.604 0-5.193-.067-7.768-.187-.396 4.377-.713 8.74-.927 13.075 8.156.513 16.453.434 24.843-.287 2.532-.218 5.043-.5 7.538-.828-.95-4.3-1.385-8.76-1.105-13.305z" opacity=".3"/></g><circle cx="277.139" cy="70.821" r="5.536" fill="#333e48"/><path d="M180.08 129.205c-26.835 21.014-50.006 58.286-65.77 100.292 16.935 5.397 34.975 8.32 53.7 8.32 25.222 0 45.67-20.45 45.67-45.672.001-26.996-13-47.504-33.598-62.94z" opacity=".2"/><path d="M0 76.36c12.104 85.782 85.805 151.77 174.928 151.77 25.223 0 45.67-20.448 45.67-45.67C220.598 96.675 89.383 76.36 0 76.36z" fill="#00953a"/><path d="M4.194 97.003C24.284 172.5 93.1 228.13 174.927 228.13c11.493 0 21.985-4.254 30.012-11.262.667-1 1.308-2 1.896-3.042a46.71 46.71 0 0 0 .907-9.163c.001-80.816-114.358-104.56-203.548-107.66z" fill="#95d600"/><path d="M0 76.36c9.33 66.12 55.26 120.47 116.633 141.917V89.098C78.473 79.637 35.87 76.36 0 76.36z" opacity=".2" fill="#218649"/></svg>
