<svg xmlns="http://www.w3.org/2000/svg" viewBox="0 0 371.977 371.977"><path d="M27.765 310a13.25 13.25 0 0 1-13.248-13.249c0-29.1 23.673-52.772 52.772-52.772a13.25 13.25 0 0 1 13.249 13.249 13.25 13.25 0 0 1-13.249 13.249c-14.488 0-26.275 11.787-26.275 26.275A13.26 13.26 0 0 1 27.764 310zm316.45 0c-7.317 0-13.25-5.932-13.25-13.25 0-14.488-11.787-26.275-26.275-26.275a13.25 13.25 0 0 1-13.249-13.249 13.25 13.25 0 0 1 13.249-13.249c29.1 0 52.772 23.673 52.772 52.772a13.25 13.25 0 0 1-13.248 13.25z" fill="#a3382a"/><path d="M246.293 160.285c39.865 0 72.182 32.317 72.182 72.182s-32.317 72.182-72.182 72.182H125.685c-39.865 0-72.182-32.317-72.182-72.182s32.317-72.182 72.182-72.182h120.608z" fill="#e94f3d"/><path d="M127.5 136.072h18.3v37.005h-18.3z" fill="#e97a6e"/><path d="M153.097 131.808a16.45 16.45 0 0 1-16.447 16.447 16.45 16.45 0 0 1-16.446-16.447v-12.792a16.45 16.45 0 0 1 16.446-16.447 16.45 16.45 0 0 1 16.447 16.447v12.792z" fill="#333e48"/><path d="M226.18 136.072h18.3v37.005h-18.3z" fill="#e97a6e"/><path d="M218.88 131.808a16.45 16.45 0 0 0 16.447 16.447 16.45 16.45 0 0 0 16.446-16.447v-12.792a16.45 16.45 0 0 0-16.446-16.447 16.45 16.45 0 0 0-16.447 16.447v12.792z" fill="#333e48"/><path d="M309.777 220.6a13.21 13.21 0 0 1-9.368-3.88 13.25 13.25 0 0 1 0-18.736c14.37-14.37 14.37-37.75 0-52.118a13.25 13.25 0 0 1 18.736-18.736c24.7 24.7 24.7 64.9 0 89.6-2.587 2.587-5.977 3.88-9.368 3.88z" fill="#a3382a"/><path d="M349.1 115.048c12.845 12.846 12.845 33.672 0 46.518s-33.673 12.846-46.52-.001l-23.258-23.258c-25.692-25.7-25.692-67.344 0-93.036l69.777 69.777z" fill="#e94f3d"/><path d="M294.923 127.045c-6.215 17.072 2.588 35.947 19.658 42.16s35.948-2.6 42.16-19.66l11.25-30.9c12.424-34.14-5.18-71.892-39.32-84.32l-33.75 92.728zM62.2 220.6a13.21 13.21 0 0 1-9.368-3.88c-24.7-24.7-24.7-64.9 0-89.6a13.25 13.25 0 0 1 18.736 18.736c-14.37 14.37-14.37 37.75 0 52.118a13.25 13.25 0 0 1 0 18.736c-2.587 2.587-5.977 3.88-9.368 3.88z" fill="#a3382a"/><path d="M22.887 115.048c-12.845 12.846-12.845 33.672 0 46.518s33.673 12.846 46.52-.001l23.258-23.258c25.692-25.7 25.692-67.344 0-93.036l-69.777 69.777z" fill="#e94f3d"/><path d="M77.055 127.045c6.215 17.072-2.588 35.947-19.658 42.16s-35.947-2.6-42.16-19.66l-11.252-30.9c-12.423-34.14 5.18-71.892 39.32-84.32l33.75 92.728z" fill="#a3382a"/><path d="M318.475 232.467c0 39.865-32.317 72.182-72.182 72.182H125.685c-39.865 0-72.182-32.317-72.182-72.182h264.972z" fill="#e97a6e"/><path d="M320.334 337.66c-7.317 0-13.25-5.932-13.25-13.25 0-14.488-11.787-26.275-26.275-26.275a13.25 13.25 0 0 1-13.249-13.249c0-7.317 5.932-13.25 13.25-13.25 29.1 0 52.773 23.674 52.773 52.772a13.25 13.25 0 0 1-13.249 13.25zm-268.7 0c-7.317 0-13.25-5.932-13.25-13.25 0-29.1 23.674-52.772 52.773-52.772a13.25 13.25 0 0 1 13.248 13.249c0 7.317-5.932 13.25-13.248 13.25-14.488 0-26.275 11.787-26.275 26.275-.001 7.316-5.932 13.248-13.25 13.248zM186 245.523c-13.28 0-24.046 10.767-24.046 24.047v35.08h48.093v-35.08c0-13.28-10.767-24.047-24.047-24.047z" fill="#a3382a"/></svg>