<svg xmlns="http://www.w3.org/2000/svg" xmlns:xlink="http://www.w3.org/1999/xlink" viewBox="0 0 398.156 398.156"><g fill="#333e48"><path d="M318.54 186.354a7.5 7.5 0 1 1 0-15c18.034 0 32.706-14.672 32.706-32.707a7.5 7.5 0 1 1 15 0c0 26.306-21.4 47.707-47.706 47.707z"/><use xlink:href="#A"/><use xlink:href="#A" x="-33.165" y="87.755"/></g><path d="M318.54 186.354c12.137 0 23.223-4.563 31.65-12.053-2.2-4.763-4.62-9.405-7.244-13.912-5.994 6.722-14.713 10.965-24.406 10.965a7.5 7.5 0 1 0 0 15zm-21.102 139.433a7.5 7.5 0 1 0 0 15c10.806 0 20.4 5.27 26.358 13.372a167.15 167.15 0 0 0 9.617-11.944c-8.753-10.054-21.63-16.428-35.975-16.428zm33.166-87.755a7.5 7.5 0 1 0 0 15c15.072 0 27.8 10.25 31.563 24.144a166.46 166.46 0 0 0 3.065-24.201c-8.702-9.2-21.002-14.943-34.628-14.943z" opacity=".3" fill="#222"/><g fill="#333e48"><path d="M232.216 47.724a7.49 7.49 0 0 1-1.406-.133 7.5 7.5 0 0 1-5.97-8.766C229.74 12.98 254.76-4.057 280.597.84a7.5 7.5 0 1 1-2.795 14.738c-17.723-3.36-34.865 8.324-38.227 26.042-.68 3.597-3.828 6.104-7.36 6.104zm-152.6 138.63c-26.306 0-47.706-21.4-47.706-47.707a7.5 7.5 0 1 1 15 0c0 18.035 14.672 32.707 32.706 32.707a7.5 7.5 0 1 1 0 15z"/><use xlink:href="#B"/><use xlink:href="#B" x="33.166" y="87.755"/></g><path d="M87.115 178.854a7.5 7.5 0 0 0-7.5-7.5c-9.693 0-18.4-4.243-24.405-10.964-2.626 4.506-5.043 9.148-7.245 13.912 8.43 7.5 19.514 12.053 31.65 12.053 4.143-.001 7.5-3.36 7.5-7.5zm-12.062 66.678a7.5 7.5 0 0 0-7.5-7.5c-13.626 0-25.926 5.75-34.627 14.942a166.74 166.74 0 0 0 3.065 24.2c3.774-13.893 16.5-24.142 31.56-24.142a7.5 7.5 0 0 0 7.501-7.5zm25.667 80.255c-14.346 0-27.223 6.373-35.976 16.427a167.43 167.43 0 0 0 9.617 11.944c5.96-8.1 15.553-13.37 26.358-13.37a7.5 7.5 0 1 0 .001-15z" opacity=".3" fill="#222"/><path d="M165.94 47.724a7.5 7.5 0 0 1-7.359-6.104c-3.36-17.718-20.507-29.4-38.226-26.042-4.07.772-7.994-1.9-8.767-5.972S113.5 1.612 117.56.84c25.842-4.9 50.857 12.14 55.758 37.984a7.5 7.5 0 0 1-5.971 8.766 7.51 7.51 0 0 1-1.407.134z" fill="#333e48"/><circle cx="199.079" cy="244.025" r="154.13" fill="#ff5959"/><path d="M199.078 365.125a64.08 64.08 0 0 1-31.653 29.762c10.217 2.134 20.802 3.27 31.653 3.27a154.47 154.47 0 0 0 31.633-3.279c-13.695-5.925-24.907-16.505-31.633-29.753z" fill="#333e48"/><g fill="#222"><path d="M199.078 365.125a64.08 64.08 0 0 1-31.653 29.762 154.77 154.77 0 0 0 12.424 2.064 64.09 64.09 0 0 0 19.229-22.628c4.555 8.972 11.173 16.714 19.222 22.622 4.2-.527 8.33-1.214 12.4-2.067-13.695-5.925-24.907-16.505-31.633-29.753z" opacity=".3"/><path d="M199.078 89.895c-85.124 0-154.13 69.007-154.13 154.13s69.006 154.13 154.13 154.13V89.895z" opacity=".3"/></g><g fill="#333e48"><path d="M311.2 138.286c-14.786.072-26.75 12.078-26.75 26.88 0 14.848 12.036 26.884 26.884 26.884 11.6 0 21.503-7.362 25.263-17.672a154.47 154.47 0 0 0-25.397-36.092z"/><circle cx="257.575" cy="266.748" r="26.884"/><path d="M292.734 344.354c-14.847 0-26.884 12.036-26.884 26.884 0 3.785.786 7.386 2.198 10.652a154.58 154.58 0 0 0 42.16-31.074 26.76 26.76 0 0 0-17.474-6.462zM86.947 138.286c14.786.072 26.75 12.078 26.75 26.88 0 14.848-12.036 26.884-26.884 26.884-11.6 0-21.503-7.362-25.263-17.672a154.53 154.53 0 0 1 25.397-36.092z"/><circle cx="140.581" cy="266.748" r="26.884"/><path d="M105.422 344.354c14.848 0 26.884 12.036 26.884 26.884 0 3.785-.786 7.386-2.198 10.652a154.58 154.58 0 0 1-42.16-31.074c4.7-4.026 10.8-6.462 17.474-6.462zM199.078 5.158c-52.156 0-94.436 42.28-94.436 94.438 0 7.163.823 14.13 2.334 20.836l.005-.005c29.737 19.248 66.712 26.92 92.098 26.92s62.36-7.673 92.098-26.92l.004.007a94.63 94.63 0 0 0 2.335-20.838c-.001-52.157-42.282-94.438-94.438-94.438z"/></g><path d="M275.675 44.387c-10.183 1.153-18.1 9.786-18.1 20.278 0 11.277 9.142 20.42 20.42 20.42 5.167 0 9.872-1.935 13.47-5.1-2.762-13.072-8.233-25.134-15.788-35.598zm-153.195 0c10.183 1.153 18.1 9.786 18.1 20.278 0 11.277-9.143 20.42-20.42 20.42-5.167 0-9.872-1.935-13.47-5.1 2.762-13.072 8.233-25.134 15.788-35.598z" fill="#d1d3d3"/><path d="M104.642 99.595c0 7.163.823 14.13 2.334 20.836l.005-.005c29.737 19.248 66.712 26.92 92.098 26.92V5.158c-52.157 0-94.437 42.28-94.437 94.437z" opacity=".3" fill="#222"/><defs><path id="A" d="M370.8 293.238a7.5 7.5 0 0 1-7.5-7.5c0-18.034-14.672-32.706-32.707-32.706a7.5 7.5 0 1 1 0-15c26.306 0 47.707 21.4 47.707 47.706a7.5 7.5 0 0 1-7.5 7.5z"/><path id="B" d="M27.346 293.238a7.5 7.5 0 0 1-7.5-7.5c0-26.305 21.4-47.706 47.707-47.706a7.5 7.5 0 1 1 0 15c-18.035 0-32.707 14.672-32.707 32.706a7.5 7.5 0 0 1-7.5 7.5z"/></defs></svg>
