<svg xmlns="http://www.w3.org/2000/svg" viewBox="0 0 381.3 381.3"><style><![CDATA[.D{fill:#e97a6e}.E{fill:#e94f3d}]]></style><path d="M353.8 236.5c-10.5 0-19 8.5-19 19 0 13.4-10.9 24.3-24.3 24.3s-24.3-10.9-24.3-24.3V95.4c0-52.7-42.7-95.4-95.4-95.4S95.2 42.7 95.2 95.4v160.1c0 13.4-10.9 24.3-24.3 24.3S46.6 269 46.6 255.5c0-10.5-8.5-19-19-19s-19 8.5-19 19c0 34.4 28 62.3 62.3 62.3s62.3-28 62.3-62.3v-57.9h12.4v164.7c0 10.5 8.5 19 19 19s19-8.5 19-19V197.7h14v164.7c0 10.5 8.5 19 19 19s19-8.5 19-19V197.7H248v57.9c0 34.4 28 62.3 62.3 62.3s62.3-28 62.3-62.3c.2-10.6-8.3-19.1-18.8-19.1z" class="E"/><circle cx="28.3" cy="286.3" r="9.6" class="D"/><circle cx="28.3" cy="286.3" r="4.6" class="E"/><circle cx="55.2" cy="308.3" r="9.6" class="D"/><circle cx="55.2" cy="308.3" r="4.6" class="E"/><circle cx="95.2" cy="305.4" r="9.6" class="D"/><circle cx="95.2" cy="305.4" r="4.6" class="E"/><circle cx="118.2" cy="281.7" r="9.6" class="D"/><circle cx="118.2" cy="281.7" r="4.6" class="E"/><circle transform="matrix(.070889 -.9975 .9975 .070889 -127.9084 350.5029)" cx="124.2" cy="243.9" r="9.6" class="D"/><circle cx="124.2" cy="243.9" r="4.6" class="E"/><circle cx="154.3" cy="244.3" r="9.6" class="D"/><circle cx="154.3" cy="244.3" r="4.6" class="E"/><circle cx="154.3" cy="281.7" r="9.6" class="D"/><circle cx="154.3" cy="281.7" r="4.6" class="E"/><circle cx="154.3" cy="319" r="9.6" class="D"/><circle cx="154.3" cy="319" r="4.6" class="E"/><circle cx="154.3" cy="356.4" r="9.6" class="D"/><circle cx="154.3" cy="356.4" r="4.6" class="E"/><circle cx="353.1" cy="286.3" r="9.6" class="D"/><circle cx="353.1" cy="286.3" r="4.6" class="E"/><circle cx="326.2" cy="308.3" r="9.6" class="D"/><circle cx="326.2" cy="308.3" r="4.6" class="E"/><circle cx="286.1" cy="305.4" r="9.6" class="D"/><circle cx="286.1" cy="305.4" r="4.6" class="E"/><circle cx="263.2" cy="281.7" r="9.6" class="D"/><circle cx="263.2" cy="281.7" r="4.6" class="E"/><circle cx="257.2" cy="243.9" r="9.6" class="D"/><circle transform="matrix(.1602 -.9871 .9871 .1602 -24.8 458.6751)" cx="257.2" cy="243.9" r="4.6" class="E"/><circle cx="227.1" cy="244.3" r="9.6" class="D"/><circle cx="227.1" cy="244.3" r="4.6" class="E"/><circle cx="227.1" cy="281.7" r="9.6" class="D"/><circle cx="227.1" cy="281.7" r="4.6" class="E"/><circle cx="227.1" cy="319" r="9.6" class="D"/><circle cx="227.1" cy="319" r="4.6" class="E"/><circle cx="227.1" cy="356.4" r="9.6" class="D"/><circle cx="227.1" cy="356.4" r="4.6" class="E"/><circle cx="112.1" cy="147.7" r="23.6" class="D"/><circle cx="112.1" cy="147.7" r="10.5" fill="#333e48"/><circle cx="269.3" cy="147.7" r="23.6" class="D"/><circle cx="269.3" cy="147.7" r="10.5" fill="#333e48"/><g class="D"><circle cx="224" cy="46.7" r="11"/><circle cx="252.7" cy="46.7" r="7"/><circle cx="209.7" cy="22.3" r="7"/></g></svg>