<svg xmlns="http://www.w3.org/2000/svg" xmlns:xlink="http://www.w3.org/1999/xlink" viewBox="0 0 425.6 425.6"><path d="M197.2 234.8c0-20.6-16.7-37.2-37.2-37.2s-37.2 16.7-37.2 37.2v190.9c41.1 0 74.5-33.3 74.5-74.5l-.1-116.4z" fill="#e94f3d"/><path d="M214.4,313.4H256v17.4h-41.6V313.4z" fill="#65513c"/><g fill="#ffb648"><path d="M240.2 308.8c-.4-1.8-1.9-3-3.7-3h-5.3a3.8 3.8 0 0 0 0 7.6h1.5v6.8a3.8 3.8 0 1 0 7.6 0v-10.6c0-.3 0-.5-.1-.8z"/><path d="M232.6 308.8c-.4-1.8-1.9-3-3.7-3h-5.3a3.8 3.8 0 0 0 0 7.6h1.5v6.8a3.8 3.8 0 0 0 7.6 0v-10.6c0-.3 0-.5-.1-.8z"/><path d="M225 308.8c-.4-1.8-1.9-3-3.7-3h-10.2a3.8 3.8 0 0 0 0 7.6h6.4v6.8a3.8 3.8 0 0 0 7.6 0v-10.6c0-.3 0-.5-.1-.8z"/></g><path d="M194.9 104.9c-39.9 0-72.2 32.3-72.2 72.2V243c0 39.9 32.3 72.2 72.2 72.2s72.2-32.3 72.2-72.2v-65.9c.1-39.8-32.3-72.1-72.2-72.2z" fill="#e94f3d"/><path d="M288.7 52.9c0 28-22.7 50.7-50.7 50.7s-50.7-22.7-50.7-50.7h101.4z" fill="#333e48"/><path d="M222.4 4.4c-32.4 0-60.3 19.1-73.1 46.7h91.6c25.2 0 47.6 11.8 62.1 30.1-2-42.8-37.3-76.8-80.6-76.8z" fill="#fadf8d"/><path d="M228.1 0H195c-36.5 0-66.2 29.6-66.2 66.2s29.6 66.2 66.2 66.2 66.2-29.6 66.2-66.2V33.1A33.08 33.08 0 0 0 228.1 0z" fill="#e94f3d"/><path d="M228.5 31.3c-5.5-5.5-13.2-8.9-21.6-8.9-16.9 0-30.5 13.7-30.5 30.5 0 8.1 3.2 15.9 8.9 21.6l46.6 46.6c17.6-11.9 29.3-32 29.3-54.9V64l-32.7-32.7z" fill="#fff"/><circle cx="206.9" cy="52.9" r="5.8" fill="#333e48"/><path d="M175,313.4h40.5v17.4H175V313.4z" fill="#65513c"/><g fill="#ffb648"><path d="M212.1 308.8c-.4-1.8-1.9-3-3.7-3H203a3.8 3.8 0 0 0 0 7.6h1.5v6.8a3.8 3.8 0 0 0 7.6 0v-10.6c.1-.3 0-.5 0-.8z"/><use xlink:href="#B"/><use xlink:href="#B" x="-7.6"/></g><path d="M207.2,172.8c0-18.2-14.8-33-33-33s-33,14.8-33,33v146.1c36.5,0,66-29.6,66-66V172.8z" fill="#ff9c9f"/><path d="M207.2 172.8c0-18.2-14.8-33-33-33s-33 14.8-33 33v113.5c36.5 0 66-29.6 66-66v-47.5z" fill="#e94f3d"/><path d="M207.2 172.8c0-18.2-14.8-33-33-33s-33 14.8-33 33v92.6c36.5 0 66-29.6 66-66v-26.6z" fill="#ff9c9f"/><defs ><path id="B" d="M204.5 308.8c-.4-1.8-1.9-3-3.7-3h-5.3a3.8 3.8 0 0 0 0 7.6h1.5v6.8a3.8 3.8 0 0 0 7.6 0v-10.6c0-.3-.1-.5-.1-.8z"/></defs></svg>