<svg xmlns="http://www.w3.org/2000/svg" viewBox="0 0 407.018 407.018"><path d="M103.233 252.273h59.272v79.465h-59.272z" fill="#db8689"/><path d="M103.233 331.738v17.086h42.742l6.194-6.195 6.195 6.195h4.142v-17.086z" fill="#283038"/><path d="M237.722 252.273h59.27v79.465h-59.27z" fill="#db8689"/><path d="M237.722 331.738v17.086h42.74l6.195-6.195 6.196 6.195h4.14v-17.086z" fill="#283038"/><path d="M40.08 173.09H22.496C10.092 173.09 0 162.996 0 150.59s10.092-22.497 22.496-22.497c3.465 0 6.274 2.81 6.274 6.274s-2.8 6.274-6.274 6.274c-5.486 0-9.948 4.463-9.948 9.95s4.462 9.95 9.948 9.95H40.08c3.465 0 6.274 2.81 6.274 6.274s-2.81 6.275-6.274 6.275z" fill="#ff9c9f"/><path d="M40.08 173.1c-12.404 0-22.496-10.092-22.496-22.497s10.092-22.497 22.496-22.497 22.498 10.092 22.498 22.497S52.485 173.1 40.08 173.1zm0-32.447c-5.486 0-9.948 4.463-9.948 9.95s4.462 9.95 9.948 9.95 9.95-4.463 9.95-9.95-4.464-9.95-9.95-9.95z" fill="#db8689"/><path d="M305.202 88.37c12.858-20.644 46.157-37.577 67.082-25.004l-28.834 47.986-38.248-22.982z" fill="#ff9c9f"/><path d="M375.985 122.32c8.003-18.688 8.927-46.177-3.7-58.95-17.207-5.154-41.046 8.57-53.8 24.406-.007.015-.2.307-.284.445a6.83 6.83 0 0 0 2.336 9.37l45.8 27.527a6.83 6.83 0 0 0 9.37-2.337c.083-.14.25-.446.258-.46z" fill="#ffb6b6"/><path d="M62.016 331.738v17.086h42.74l6.194-6.195 6.195 6.195h4.142v-17.086z" fill="#333e48"/><path d="M299.813 75c-32.706 0-61.548 16.548-78.6 41.728H130.4c-52.037 0-94.22 42.184-94.22 94.22 0 25.105 9.82 47.915 25.827 64.802v55.978H121.3v-27a95.41 95.41 0 0 0 9.12.44h66.093v26.56h59.273v-31.825c18.874-6.602 35.006-19.038 46.234-35.15 51.392-1.168 92.693-43.2 92.693-94.863 0-52.407-42.483-94.9-94.9-94.9z" fill="#ff9c9f"/><path d="M379.712 200.138H334.7c-15.08 0-27.305-12.226-27.305-27.306s12.226-27.306 27.305-27.306h45v54.612z" fill="#db8689"/><path d="M379.712 145.526c15.08 0 27.306 12.225 27.306 27.306s-12.226 27.306-27.306 27.306h-27.314c-15.08 0-27.307-12.226-27.307-27.306s12.226-27.306 27.307-27.306h27.314z" fill="#ffb6b6"/><path d="M347.6 165.23a6.8 6.8 0 0 1 6.796-6.795 6.8 6.8 0 0 1 6.795 6.795v15.206c0 3.753-3.043 6.795-6.795 6.795a6.8 6.8 0 0 1-6.796-6.795V165.23zm43.667 0a6.8 6.8 0 0 0-6.796-6.795c-3.753 0-6.794 3.043-6.794 6.795v15.206c0 3.753 3.04 6.795 6.794 6.795s6.796-3.042 6.796-6.795V165.23z" fill="#db8689"/><g fill="#333e48"><circle cx="311.256" cy="128.136" r="7.58"/><circle cx="369.916" cy="128.136" r="7.579"/><path d="M196.5 331.738v17.086h42.742l6.195-6.195 6.194 6.195h4.142v-17.086z"/></g><g fill="#db8689"><circle cx="78.775" cy="182.019" r="12.875"/><circle cx="121.287" cy="158.434" r="12.875"/><circle cx="113.525" cy="193.928" r="7.664"/></g><path d="M225.735 129.635c-11.45-21.458-9.464-58.762 11.887-70.598L264.763 108l-39.028 21.634z" fill="#ff9c9f"/><path d="M290.527 85.308C278.343 69.036 255 54.5 237.623 59.04c-13.068 12.326-13.102 39.83-5.76 58.786.01.015.166.328.243.47a6.83 6.83 0 0 0 9.282 2.663l46.746-25.9a6.83 6.83 0 0 0 2.66-9.284c-.078-.143-.26-.44-.27-.455z" fill="#ffb6b6"/></svg>