<svg xmlns="http://www.w3.org/2000/svg" viewBox="0 0 379.7 379.7"><g fill="#ffb648"><path d="M192.4 262.8a14.77 14.77 0 0 0-14.8 14.8v89.8c0 6.8 5.5 12.3 12.3 12.3H235c6.8 0 12.3-5.5 12.3-12.3s-5.5-12.3-12.3-12.3h-27.8v-77.4c0-8.3-6.6-14.9-14.8-14.9z"/><path d="M129.8 262.8a14.77 14.77 0 0 0-14.8 14.8v89.8c0 6.8 5.5 12.3 12.3 12.3h45.1c6.8 0 12.3-5.5 12.3-12.3s-5.5-12.3-12.3-12.3h-27.8v-77.4c0-8.3-6.6-14.9-14.8-14.9z"/></g><path d="M22.7 146v68.6c0 47.5 38.5 86.1 86.1 86.1h100.6c61.2 0 110.9-49.6 110.9-110.9V89.1c0-37.4-27-68.4-62.6-74.7V6.6c0-3.6-3-6.6-6.6-6.6s-6.6 3-6.6 6.6v2l-4.9-4.9c-2.6-2.6-6.8-2.6-9.3 0-2.6 2.6-2.6 6.8 0 9.3l1.3 1.3c-35.8 6.1-63 37.2-63 74.8v39.3h-59.7c-22.1 0-42.2 8.3-57.5 22V146a14.3 14.3 0 0 0-14.3-14.3c-8 0-14.4 6.4-14.4 14.3z" fill="#fadf8d"/><path d="M251.7 172.8a3.33 3.33 0 0 1 3.3 3.3c-1.7 45.8-39.4 82.5-85.7 82.5s-84-36.8-85.7-82.6a3.33 3.33 0 0 1 3.3-3.3h164.8zm-.7-57.1c0 12.6 10.2 22.8 22.8 22.8h60.3c12.6 0 22.8-10.2 22.8-22.8s-10.2-22.8-22.8-22.8h-60.3c-12.5 0-22.8 10.2-22.8 22.8z" fill="#ffb648"/><circle cx="248" cy="73.2" r="8" fill="#333e48"/></svg>