<svg xmlns="http://www.w3.org/2000/svg" viewBox="0 0 424.938 424.938"><path d="M179.74 271.1l-6.632 151.666a2.18 2.18 0 0 1-2.18 2.18h-19.673a2.18 2.18 0 0 1-2.18-2.18L142.442 271.1h37.298z" fill="#ed9900"/><path d="M148.674 413.535l.403 9.223a2.18 2.18 0 0 0 2.18 2.18h19.673a2.18 2.18 0 0 0 2.18-2.18l.403-9.223h-24.84z" fill="#333e48"/><path d="M297.997 271.1l-6.632 151.666a2.18 2.18 0 0 1-2.179 2.18h-19.674a2.18 2.18 0 0 1-2.18-2.18L260.7 271.1h37.296z" fill="#ed9900"/><path d="M266.93 413.535l.403 9.223a2.18 2.18 0 0 0 2.18 2.18h19.674a2.18 2.18 0 0 0 2.179-2.18l.404-9.223h-24.84z" fill="#333e48"/><path d="M261.392 0c-2.936 0-5.315 2.38-5.315 5.316V24.28h10.63V5.316c0-2.937-2.38-5.316-5.316-5.316zM278.1 0c-2.935 0-5.315 2.38-5.315 5.316V24.28h10.63V5.316A5.3 5.3 0 0 0 278.1 0z" fill="#65513c"/><path d="M86.8 275.396c-1.774 0-3.214-1.44-3.214-3.215 0-23.143 18.828-41.972 41.97-41.972 1.775 0 3.215 1.44 3.215 3.214s-1.44 3.215-3.215 3.215c-19.6 0-35.542 15.944-35.542 35.543 0 1.775-1.44 3.215-3.215 3.215z" fill="#ffb648"/><path d="M92.806 277.827l-1.384 7.668c-.462 2.558-2.9 4.257-5.467 3.795-1.983-.358-3.452-1.922-3.795-3.795l-1.383-7.668a6.11 6.11 0 0 1 4.929-7.1c3.322-.6 6.5 1.608 7.1 4.93a6.23 6.23 0 0 1 0 2.171z" fill="#65513c"/><g fill="#ffb648"><path d="M328.44 35.697c-11.66 0-22.2-4.757-29.813-12.438h-.005c-3.857-4.6-9.65-7.547-16.132-7.547-.146 0-.3.02-.435.02v-.02h-18.297c-11.17 0-20.282 8.716-20.964 19.715l-.024.003-14.47 181.278h-68.095c-30.035 0-54.383 24.35-54.383 54.382s24.348 54.382 54.383 54.382h88.933c30.034 0 54.383-24.348 54.383-54.382v-54.382l-9.472-149.37h34.4c8.736 0 15.82-7.083 15.82-15.82s-7.083-15.82-15.82-15.82z"/><path d="M143.12 271.1l-6.632 151.666a2.18 2.18 0 0 1-2.18 2.18h-19.673a2.18 2.18 0 0 1-2.18-2.18L105.82 271.1h37.298z"/></g><path d="M112.052 413.535l.403 9.223a2.18 2.18 0 0 0 2.18 2.18h19.673a2.18 2.18 0 0 0 2.18-2.18l.403-9.223h-24.84z" fill="#333e48"/><path d="M261.375 271.1l-6.632 151.666a2.18 2.18 0 0 1-2.18 2.18H232.9a2.18 2.18 0 0 1-2.181-2.18L224.09 271.1h37.297z" fill="#ffb648"/><path d="M230.307 413.535l.402 9.223a2.18 2.18 0 0 0 2.181 2.18h19.673a2.18 2.18 0 0 0 2.18-2.18l.404-9.223h-24.84z" fill="#333e48"/><g fill="#65513c"><path d="M188.902 216.7h-28.697l-.7.017c-3.883 3.8-6.298 9.112-6.298 14.983 0 11.597 9.402 21 21 21s21-9.402 21-21a20.92 20.92 0 0 0-6.317-15zm46.578-75.245l-1.18.06-4.132 51.747c1.715.353 3.5.54 5.3.54 14.456 0 26.174-11.718 26.174-26.174s-11.718-26.172-26.174-26.172z"/><circle cx="242.727" cy="257.883" r="26.174"/><path d="M296.204 101.3c-13.016 1.514-23.12 12.562-23.12 25.98 0 14.455 11.718 26.173 26.173 26.173.086 0 .168-.01.254-.012l-3.306-52.14z"/><circle cx="279.22" cy="208.995" r="14.274"/><path d="M285.6 252.7c0 9.897 8.022 17.92 17.92 17.92V234.8c-9.897 0-17.92 8.022-17.92 17.918z"/><circle cx="256.174" cy="95.653" r="11.9"/><circle cx="192.771" cy="286.781" r="11.899"/><circle cx="141.319" cy="262.981" r="11.9"/></g><circle cx="278.113" cy="36.141" r="5.206" fill="#333e48"/><path d="M330.594 35.86a47.71 47.71 0 0 0-8.89 27.793l.154 3.685h6.582c8.736 0 15.82-7.083 15.82-15.82.001-8.004-5.95-14.603-13.665-15.657z" fill="#ed9900"/><path d="M238.903 33.396c-5.675-5.674-7.072-12.516-3.32-16.267s10.592-2.353 16.267 3.322 7.072 12.516 3.32 16.268-10.592 2.352-16.268-3.323z" fill="#ffb648"/><ellipse transform="matrix(.7071 -.7071 .7071 .7071 52.835 181.3939)" cx="245.379" cy="26.919" rx="4.696" ry="9.393" fill="#ed9900"/></svg>