<svg xmlns="http://www.w3.org/2000/svg" xmlns:xlink="http://www.w3.org/1999/xlink" viewBox="0 0 512 512"><style><![CDATA[.F{fill:#65513c}.G{enable-background:new}]]></style><g class="F"><use xlink:href="#B"/><use xlink:href="#C"/><use xlink:href="#C" x="56.7"/><use xlink:href="#B" x="136.8"/></g><path d="M191.3 425.4h18.6v18.3h-18.6v-18.3zm40.1 0H250v18.3h-18.6v-18.3zm56.7 0h18.6v18.3h-18.6v-18.3zm40 0h18.6v18.3h-18.6v-18.3z" opacity=".3" fill="#222" class="G"/><path d="M73,279L0,315.5L73,352V279z" class="F"/><path d="M38.1 296.5c-1 6.3-1.5 12.7-1.5 19 0 6.4.5 12.7 1.5 19L73 352v-73l-34.9 17.5z" opacity=".3" fill="#222" class="G"/><path d="M390.7 198.1c64.9 0 117.4 52.6 117.4 117.4S455.6 433 390.7 433H171.8C107 433 54.4 380.4 54.4 315.5S107 198.1 171.8 198.1h218.9z" fill="#ffb648"/><path d="M171.8 198.1h42.7V433h-42.7V198.1zm88.1 0h42.7V433h-42.7V198.1zm88.1 0h42.7V433H348V198.1z" class="F"/><path d="M355.3 41.9c43.1 0 78.1 35 78.1 78.1s-35 78.1-78.1 78.1h-78.1V120c.1-43.1 35-78.1 78.1-78.1z" fill="#d8d2c4"/><path d="M289.9 77.4c-8 12.3-12.7 26.9-12.7 42.6v78.1h25.4V120c0-15.7-4.7-30.4-12.7-42.6z" opacity=".2" fill="#222" class="G"/><path d="M210.5 41.9c-43.1 0-78.1 35-78.1 78.1s35 78.1 78.1 78.1h78.1V120c0-43.1-35-78.1-78.1-78.1z" fill="#d8d2c4"/><path d="M210.5 41.9c-43.1 0-78.1 35-78.1 78.1s35 78.1 78.1 78.1V41.9zm297.6 273.6c0 64.9-52.6 117.4-117.4 117.4H171.8C107 433 54.4 380.4 54.4 315.5h453.7z" opacity=".2" fill="#222" class="G"/><g class="F"><circle cx="461.4" cy="285.7" r="10.1"/><path d="M448.1 243c-5.1 0-9.3-4.2-9.3-9.3 0-30.5 24.8-55.3 55.3-55.3 5.1 0 9.3 4.2 9.3 9.3s-4.2 9.3-9.3 9.3c-20.2 0-36.6 16.4-36.6 36.6-.1 5.3-4.3 9.4-9.4 9.4z"/></g><path d="M494 178.5c-12 0-23.1 3.9-32.2 10.4.3 6.9 3.1 13.2 7.4 17.9 6.5-6 15.2-9.7 24.8-9.7 5.1 0 9.3-4.2 9.3-9.3s-4.1-9.3-9.3-9.3z" opacity=".3" fill="#222" class="G"/><circle cx="490.3" cy="187.6" r="21.7" class="F"/><defs ><path id="B" d="M200.6 470.1c-5.1 0-9.3-4.2-9.3-9.3v-50.3c0-5.1 4.2-9.3 9.3-9.3s9.3 4.2 9.3 9.3v50.3c0 5.1-4.1 9.3-9.3 9.3z"/><path id="C" d="M240.7 470.1c-5.1 0-9.3-4.2-9.3-9.3v-50.3c0-5.1 4.2-9.3 9.3-9.3s9.3 4.2 9.3 9.3v50.3c0 5.1-4.2 9.3-9.3 9.3z"/></defs></svg>