<svg xmlns="http://www.w3.org/2000/svg" xmlns:xlink="http://www.w3.org/1999/xlink" viewBox="0 0 383.2 383.2"><path d="M113.5 297.5h27.1v85.7h-27.1v-85.7z" fill="#ccb276"/><path d="M113.5 374.5h27.1v8.7h-27.1v-8.7z" fill="#2d3740"/><use xlink:href="#B" fill="#e2c67f"/><path d="M235,297.5h27.1v85.7H235V297.5z" fill="#ccb276"/><path d="M235 374.5h27.1v8.7H235v-8.7z" fill="#2d3740"/><g fill="#e2c67f"><use xlink:href="#B" x="121.5"/><path d="M78.2,297.5h27.1v85.7H78.2V297.5z"/></g><path d="M78.2 374.5h27.1v8.7H78.2v-8.7z" fill="#333e48"/><path d="M67.4 245.4c0-13.5 10.9-24.4 24.4-24.4s24.4 10.9 24.4 24.4v52.2c0 13.5-10.9 24.4-24.4 24.4s-24.4-11-24.4-24.5v-52.1z" fill="#fadf8d"/><path d="M199.7,297.5h27.1v85.7h-27.1V297.5z" fill="#e2c67f"/><path d="M199.7 374.5h27.1v8.7h-27.1v-8.7z" fill="#333e48"/><g fill="#fadf8d"><use xlink:href="#B" x="86.2"/><path d="M301 15.7h-26.8c-20.2 0-36.6 16.4-36.6 36.6v80.8H91.7a54.68 54.68 0 0 0-25.5 6.3 19.66 19.66 0 0 0-15.6-7.7c-10.9 0-19.8 8.9-19.8 19.8 0 7.1 3.8 13.3 9.4 16.8a55.19 55.19 0 0 0-3.8 20.1v27.7c0 30.4 24.9 55.3 55.3 55.3h156.6c30.4 0 55.3-24.9 55.3-55.3V88.7c18.9-1.4 33.8-17.2 33.8-36.4.1-20.2-16.2-36.6-36.4-36.6z"/></g><path d="M347.1 52.8h-8.6v15.9h13.2V57.4c0-2.5-2.1-4.6-4.6-4.6z" fill="#ccb276"/><path d="M337.5 51c-.2-7.4-2.7-14.2-6.7-19.8h-45.7c0 3.6-2 6.8-4.9 8.5a9.6 9.6 0 0 1 .6 3.3c0 2.7-1.1 5.2-2.9 7 10.4 3 17.9 12.5 17.9 23.8 0 5.5-1.8 10.9-5.2 15.2H333a19.25 19.25 0 0 0 19.3-19.3c0-9.1-6.3-16.7-14.8-18.7z" fill="#e2c67f"/><circle cx="319.2" cy="47.3" r="4.3" fill="#333e48"/><path d="M276.5 29.3c-2.9 2.9-7.5 2.9-10.3 0-2.9-2.9-2.9-7.5 0-10.3L285 0c5.7 5.7 5.7 15 0 20.7l-8.5 8.6z" fill="#e2c67f"/><defs ><path id="B" d="M102.7 245.4c0-13.5 10.9-24.4 24.4-24.4s24.4 10.9 24.4 24.4v52.2c0 13.5-10.9 24.4-24.4 24.4s-24.4-10.9-24.4-24.4v-52.2z"/></defs></svg>